G75*
G70*
%OFA0B0*%
%FSLAX24Y24*%
%IPPOS*%
%LPD*%
%AMOC8*
5,1,8,0,0,1.08239X$1,22.5*
%
%ADD10R,0.0220X0.0500*%
%ADD11R,0.0500X0.0220*%
%ADD12R,0.0472X0.0315*%
%ADD13R,0.0315X0.0472*%
%ADD14R,0.0276X0.0669*%
%ADD15C,0.0600*%
%ADD16C,0.0120*%
%ADD17C,0.0270*%
%ADD18C,0.0080*%
%ADD19C,0.0100*%
D10*
X002458Y002620D03*
X002773Y002620D03*
X003088Y002620D03*
X003403Y002620D03*
X003717Y002620D03*
X004032Y002620D03*
X004347Y002620D03*
X004662Y002620D03*
X004662Y006000D03*
X004347Y006000D03*
X004032Y006000D03*
X003717Y006000D03*
X003403Y006000D03*
X003088Y006000D03*
X002773Y006000D03*
X002458Y006000D03*
D11*
X001870Y005412D03*
X001870Y005097D03*
X001870Y004782D03*
X001870Y004467D03*
X001870Y004153D03*
X001870Y003838D03*
X001870Y003523D03*
X001870Y003208D03*
X005250Y003208D03*
X005250Y003523D03*
X005250Y003838D03*
X005250Y004153D03*
X005250Y004467D03*
X005250Y004782D03*
X005250Y005097D03*
X005250Y005412D03*
D12*
X006070Y005566D03*
X006070Y006274D03*
X002720Y006656D03*
X002120Y006656D03*
X002120Y007364D03*
X002720Y007364D03*
D13*
X003266Y006910D03*
X003974Y006910D03*
X004366Y006910D03*
X005074Y006910D03*
X005766Y007110D03*
X006474Y007110D03*
X003974Y001910D03*
X003266Y001910D03*
D14*
X004548Y001770D03*
X005020Y001770D03*
X005492Y001770D03*
D15*
X000620Y000610D03*
X000620Y001610D03*
X000620Y002610D03*
X000620Y003610D03*
X000620Y004610D03*
X000620Y005610D03*
X000620Y006610D03*
X000620Y007610D03*
X000620Y008610D03*
X001620Y008610D03*
X002620Y008610D03*
X003620Y008610D03*
X004620Y008610D03*
X005620Y008610D03*
X006620Y008610D03*
X007620Y008610D03*
X007620Y007610D03*
X007620Y006610D03*
X007620Y005610D03*
X007620Y004610D03*
X007620Y003610D03*
X007620Y002610D03*
X007620Y001610D03*
X007620Y000610D03*
X006620Y000610D03*
X005620Y000610D03*
X004620Y000610D03*
X003620Y000610D03*
X002620Y000610D03*
X001620Y000610D03*
D16*
X003088Y002177D02*
X003266Y001999D01*
X003266Y001910D01*
X003266Y001999D02*
X003347Y001999D01*
X003717Y002369D01*
X003717Y002620D01*
X003403Y002620D02*
X003403Y003010D01*
X003877Y003010D01*
X003877Y003369D01*
X003877Y003010D02*
X004032Y003010D01*
X004032Y002620D01*
X004032Y002344D01*
X003974Y002286D01*
X003974Y001910D01*
X003088Y002177D02*
X003088Y002620D01*
X003088Y003010D01*
X003088Y003054D01*
X003812Y003779D01*
X004099Y003779D01*
X005012Y002865D01*
X005140Y002865D01*
X005776Y002229D01*
X005776Y001360D01*
X005711Y001295D01*
X005020Y001295D01*
X005020Y001770D01*
X003812Y003779D02*
X003403Y004188D01*
X003403Y005610D01*
X003403Y006000D01*
X003403Y006397D01*
X003266Y006534D01*
X003266Y006882D01*
X003266Y006910D01*
X003166Y007010D01*
X001767Y007010D01*
X001127Y007898D02*
X001127Y008433D01*
X001443Y008433D01*
X001620Y008610D01*
X001127Y008433D02*
X000797Y008433D01*
X000620Y008610D01*
X000620Y006697D02*
X002533Y008610D01*
X002620Y008610D01*
X003106Y007374D02*
X003232Y007374D01*
X003106Y007374D02*
X003096Y007364D01*
X002720Y007364D01*
X004665Y005432D02*
X005074Y005841D01*
X005074Y006910D01*
X000620Y006697D02*
X000620Y006610D01*
D17*
X001767Y007010D03*
X001127Y007898D03*
X003232Y007374D03*
X004922Y008179D03*
X004665Y005432D03*
X004019Y004133D03*
X003877Y003369D03*
X002934Y004291D03*
X002337Y004506D03*
X002927Y005004D03*
X001214Y004868D03*
X001596Y002288D03*
X002087Y001087D03*
X005140Y002865D03*
X006531Y005108D03*
D18*
X006274Y004989D02*
X006425Y004838D01*
X006848Y004838D01*
X007620Y005610D01*
X006998Y005988D02*
X007620Y006610D01*
X006998Y005988D02*
X005826Y005988D01*
X005250Y005412D01*
X005250Y005097D02*
X005520Y005097D01*
X005628Y004989D01*
X006274Y004989D01*
X005792Y004610D02*
X005620Y004782D01*
X005250Y004782D01*
X005250Y004467D02*
X005620Y004467D01*
X005705Y004383D01*
X006847Y004383D01*
X007620Y003610D01*
X007620Y002610D02*
X006077Y004153D01*
X005620Y004153D01*
X005250Y004153D01*
X005250Y003838D02*
X005620Y003838D01*
X007620Y001838D01*
X007620Y001610D01*
X007620Y000610D02*
X006168Y002062D01*
X006168Y002975D01*
X005620Y003523D01*
X005250Y003523D01*
X005250Y003208D02*
X005620Y003208D01*
X006008Y002820D01*
X006008Y001222D01*
X006620Y000610D01*
X005620Y000610D02*
X005186Y001044D01*
X004030Y001044D01*
X003536Y001538D01*
X003063Y001538D01*
X002773Y001828D01*
X002773Y002250D01*
X002773Y002620D01*
X002458Y002620D02*
X002458Y002250D01*
X002458Y001917D01*
X002997Y001378D01*
X003470Y001378D01*
X004237Y000610D01*
X004620Y000610D01*
X004548Y001770D02*
X004548Y002225D01*
X004373Y002225D01*
X004347Y002250D01*
X004347Y002620D01*
X004662Y002620D02*
X005058Y002225D01*
X005492Y002225D01*
X005492Y001770D01*
X004019Y004133D02*
X004019Y005617D01*
X004032Y005630D01*
X004032Y006000D01*
X003717Y006000D02*
X003717Y006370D01*
X003697Y006391D01*
X003697Y007210D01*
X003953Y007466D01*
X005476Y007466D01*
X006620Y008610D01*
X006404Y007610D02*
X006043Y007249D01*
X006043Y007110D01*
X005766Y007110D01*
X005488Y007110D01*
X005332Y007266D01*
X004836Y007266D01*
X004662Y007092D01*
X004662Y006000D01*
X004347Y006000D02*
X004347Y006910D01*
X004366Y006910D01*
X004347Y006910D02*
X003974Y006910D01*
X004764Y007642D02*
X002120Y007642D01*
X002120Y007364D01*
X001505Y007319D02*
X001505Y006886D01*
X001735Y006656D01*
X002120Y006656D01*
X002298Y006656D01*
X002476Y006656D01*
X002720Y006656D01*
X002773Y006370D02*
X001380Y006370D01*
X000620Y005610D01*
X001214Y005126D02*
X001214Y004868D01*
X001214Y005126D02*
X001500Y005412D01*
X001870Y005412D01*
X001870Y005097D02*
X002240Y005097D01*
X002337Y005001D01*
X002337Y004506D01*
X002240Y003967D02*
X002240Y003838D01*
X001870Y003838D01*
X001870Y003523D02*
X002240Y003523D01*
X002240Y003597D01*
X002934Y004291D01*
X002927Y004655D02*
X002240Y003967D01*
X001870Y004153D02*
X001500Y004153D01*
X001500Y002384D01*
X001596Y002288D01*
X001040Y002030D02*
X001040Y004323D01*
X001500Y004782D01*
X001870Y004782D01*
X001870Y004467D02*
X001500Y004467D01*
X001340Y004307D01*
X001340Y001330D01*
X000620Y000610D01*
X000620Y001610D02*
X001040Y002030D01*
X001870Y001303D02*
X001870Y003208D01*
X002228Y002932D02*
X003197Y003902D01*
X003197Y005234D01*
X003088Y005344D01*
X003088Y006000D01*
X002773Y006000D02*
X002773Y006370D01*
X002458Y006000D02*
X002458Y005630D01*
X002228Y005630D01*
X002204Y005653D01*
X001511Y005653D01*
X000620Y004762D01*
X000620Y004610D01*
X002228Y002932D02*
X002228Y001307D01*
X002620Y000914D01*
X002620Y000610D01*
X002087Y001087D02*
X001870Y001303D01*
X002927Y004655D02*
X002927Y005004D01*
X001505Y007319D02*
X002364Y008179D01*
X004922Y008179D01*
X004764Y007642D02*
X005620Y008498D01*
X005620Y008610D01*
X006404Y007610D02*
X007620Y007610D01*
X007620Y004610D02*
X005792Y004610D01*
D19*
X005715Y005199D02*
X005670Y005244D01*
X005670Y005535D01*
X005729Y005594D01*
X006041Y005594D01*
X006041Y005537D01*
X005684Y005537D01*
X005684Y005388D01*
X005694Y005350D01*
X005714Y005316D01*
X005742Y005288D01*
X005776Y005268D01*
X005814Y005258D01*
X006041Y005258D01*
X006041Y005537D01*
X006099Y005537D01*
X006099Y005594D01*
X006456Y005594D01*
X006456Y005743D01*
X006447Y005778D01*
X007085Y005778D01*
X007470Y006163D01*
X007527Y006140D01*
X007713Y006140D01*
X007845Y006194D01*
X007845Y006026D01*
X007713Y006080D01*
X007527Y006080D01*
X007354Y006008D01*
X007222Y005876D01*
X007150Y005703D01*
X007150Y005517D01*
X007173Y005460D01*
X006761Y005048D01*
X006512Y005048D01*
X006484Y005076D01*
X006361Y005199D01*
X005715Y005199D01*
X005681Y005234D02*
X006947Y005234D01*
X007045Y005332D02*
X006435Y005332D01*
X006426Y005316D02*
X006446Y005350D01*
X006456Y005388D01*
X006456Y005537D01*
X006099Y005537D01*
X006099Y005258D01*
X006326Y005258D01*
X006364Y005268D01*
X006398Y005288D01*
X006426Y005316D01*
X006370Y005240D02*
X006080Y005240D01*
X006070Y005230D01*
X006070Y005560D01*
X006070Y005570D01*
X006070Y005566D02*
X006073Y005566D01*
X006099Y005529D02*
X006041Y005529D01*
X006041Y005431D02*
X006099Y005431D01*
X006099Y005332D02*
X006041Y005332D01*
X005705Y005332D02*
X005670Y005332D01*
X005670Y005431D02*
X005684Y005431D01*
X005670Y005529D02*
X005684Y005529D01*
X005365Y005825D02*
X005304Y005825D01*
X005304Y005764D02*
X005304Y006506D01*
X005402Y006603D01*
X005402Y006900D01*
X005438Y006900D01*
X005438Y006803D01*
X005538Y006704D01*
X005994Y006704D01*
X006093Y006803D01*
X006093Y006900D01*
X006130Y006900D01*
X006147Y006917D01*
X006147Y006803D01*
X006217Y006733D01*
X006086Y006602D01*
X005763Y006602D01*
X005664Y006502D01*
X005664Y006123D01*
X005616Y006075D01*
X005304Y005764D01*
X005304Y005923D02*
X005464Y005923D01*
X005562Y006022D02*
X005304Y006022D01*
X005304Y006120D02*
X005661Y006120D01*
X005664Y006219D02*
X005304Y006219D01*
X005304Y006317D02*
X005664Y006317D01*
X005664Y006416D02*
X005304Y006416D01*
X005312Y006514D02*
X005676Y006514D01*
X005531Y006711D02*
X005402Y006711D01*
X005402Y006613D02*
X006097Y006613D01*
X006001Y006711D02*
X006196Y006711D01*
X006147Y006810D02*
X006093Y006810D01*
X006138Y006908D02*
X006147Y006908D01*
X006474Y007110D02*
X006474Y006679D01*
X006070Y006274D01*
X006476Y006317D02*
X007030Y006317D01*
X006932Y006219D02*
X006476Y006219D01*
X006476Y006198D02*
X006911Y006198D01*
X007173Y006460D01*
X007150Y006517D01*
X007150Y006703D01*
X007222Y006876D01*
X007354Y007008D01*
X007527Y007080D01*
X007713Y007080D01*
X007845Y007026D01*
X007845Y007194D01*
X007713Y007140D01*
X007527Y007140D01*
X007354Y007212D01*
X007222Y007344D01*
X007198Y007400D01*
X006802Y007400D01*
X006802Y006803D01*
X006702Y006704D01*
X006694Y006704D01*
X006694Y006588D01*
X006565Y006459D01*
X006476Y006369D01*
X006476Y006198D01*
X006522Y006416D02*
X007129Y006416D01*
X007151Y006514D02*
X006621Y006514D01*
X006694Y006613D02*
X007150Y006613D01*
X007153Y006711D02*
X006709Y006711D01*
X006802Y006810D02*
X007194Y006810D01*
X007253Y006908D02*
X006802Y006908D01*
X006802Y007007D02*
X007352Y007007D01*
X007373Y007204D02*
X006802Y007204D01*
X006802Y007302D02*
X007263Y007302D01*
X007198Y007820D02*
X006317Y007820D01*
X006004Y007506D01*
X005994Y007516D01*
X005823Y007516D01*
X006470Y008163D01*
X006527Y008140D01*
X006713Y008140D01*
X006886Y008212D01*
X007018Y008344D01*
X007090Y008517D01*
X007090Y008703D01*
X007036Y008835D01*
X007204Y008835D01*
X007150Y008703D01*
X007150Y008517D01*
X007222Y008344D01*
X007354Y008212D01*
X007527Y008140D01*
X007713Y008140D01*
X007845Y008194D01*
X007845Y008026D01*
X007713Y008080D01*
X007527Y008080D01*
X007354Y008008D01*
X007222Y007876D01*
X007198Y007820D01*
X007238Y007893D02*
X006200Y007893D01*
X006292Y007795D02*
X006102Y007795D01*
X006193Y007696D02*
X006003Y007696D01*
X006095Y007598D02*
X005905Y007598D01*
X005606Y007893D02*
X005312Y007893D01*
X005213Y007795D02*
X005508Y007795D01*
X005409Y007696D02*
X005115Y007696D01*
X005095Y007676D02*
X005559Y008140D01*
X005713Y008140D01*
X005886Y008212D01*
X006018Y008344D01*
X006090Y008517D01*
X006090Y008703D01*
X006036Y008835D01*
X006204Y008835D01*
X006150Y008703D01*
X006150Y008517D01*
X006173Y008460D01*
X005389Y007676D01*
X005095Y007676D01*
X004747Y007923D02*
X004677Y007852D01*
X002334Y007852D01*
X002451Y007969D01*
X004701Y007969D01*
X004747Y007923D01*
X004718Y007893D02*
X002375Y007893D01*
X002038Y008440D02*
X002059Y008505D01*
X002068Y008560D01*
X001670Y008560D01*
X001670Y008660D01*
X002068Y008660D01*
X002059Y008715D01*
X002037Y008783D01*
X002010Y008835D01*
X002204Y008835D01*
X002150Y008703D01*
X002150Y008552D01*
X002038Y008440D01*
X002052Y008484D02*
X002082Y008484D01*
X002150Y008583D02*
X001670Y008583D01*
X001670Y008560D02*
X001670Y008162D01*
X001725Y008171D01*
X001790Y008192D01*
X001073Y007475D01*
X001090Y007517D01*
X001090Y007703D01*
X001018Y007876D01*
X000886Y008008D01*
X000713Y008080D01*
X000527Y008080D01*
X000395Y008026D01*
X000395Y008220D01*
X000447Y008193D01*
X000515Y008171D01*
X000570Y008162D01*
X000570Y008560D01*
X000670Y008560D01*
X000670Y008660D01*
X001068Y008660D01*
X001059Y008715D01*
X001037Y008783D01*
X001010Y008835D01*
X001230Y008835D01*
X001203Y008783D01*
X001181Y008715D01*
X001172Y008660D01*
X001570Y008660D01*
X001570Y008560D01*
X001670Y008560D01*
X001670Y008484D02*
X001570Y008484D01*
X001570Y008560D02*
X001570Y008162D01*
X001515Y008171D01*
X001447Y008193D01*
X001384Y008225D01*
X001327Y008267D01*
X001277Y008317D01*
X001235Y008374D01*
X001203Y008437D01*
X001181Y008505D01*
X001172Y008560D01*
X001570Y008560D01*
X001570Y008583D02*
X000670Y008583D01*
X000670Y008560D02*
X001068Y008560D01*
X001059Y008505D01*
X001037Y008437D01*
X001005Y008374D01*
X000963Y008317D01*
X000913Y008267D01*
X000856Y008225D01*
X000793Y008193D01*
X000725Y008171D01*
X000670Y008162D01*
X000670Y008560D01*
X000670Y008484D02*
X000570Y008484D01*
X000570Y008386D02*
X000670Y008386D01*
X000670Y008287D02*
X000570Y008287D01*
X000570Y008189D02*
X000670Y008189D01*
X000779Y008189D02*
X001461Y008189D01*
X001570Y008189D02*
X001670Y008189D01*
X001670Y008287D02*
X001570Y008287D01*
X001570Y008386D02*
X001670Y008386D01*
X001779Y008189D02*
X001786Y008189D01*
X001688Y008090D02*
X000395Y008090D01*
X000395Y008189D02*
X000461Y008189D01*
X000903Y007992D02*
X001589Y007992D01*
X001491Y007893D02*
X001002Y007893D01*
X001052Y007795D02*
X001392Y007795D01*
X001294Y007696D02*
X001090Y007696D01*
X001090Y007598D02*
X001195Y007598D01*
X001097Y007499D02*
X001083Y007499D01*
X000755Y007157D02*
X000678Y007080D01*
X000527Y007080D01*
X000395Y007026D01*
X000395Y007194D01*
X000527Y007140D01*
X000713Y007140D01*
X000755Y007157D01*
X000703Y007105D02*
X000395Y007105D01*
X001050Y006801D02*
X001295Y007046D01*
X001295Y006799D01*
X001514Y006580D01*
X001293Y006580D01*
X000770Y006057D01*
X000713Y006080D01*
X000527Y006080D01*
X000395Y006026D01*
X000395Y006194D01*
X000527Y006140D01*
X000713Y006140D01*
X000886Y006212D01*
X001018Y006344D01*
X001090Y006517D01*
X001090Y006703D01*
X001050Y006801D01*
X001058Y006810D02*
X001295Y006810D01*
X001383Y006711D02*
X001087Y006711D01*
X001090Y006613D02*
X001482Y006613D01*
X001227Y006514D02*
X001089Y006514D01*
X001129Y006416D02*
X001048Y006416D01*
X001030Y006317D02*
X000992Y006317D01*
X000932Y006219D02*
X000893Y006219D01*
X000833Y006120D02*
X000395Y006120D01*
X001067Y005760D02*
X001467Y006160D01*
X002178Y006160D01*
X002178Y005863D01*
X001424Y005863D01*
X001301Y005740D01*
X001090Y005529D01*
X001090Y005703D01*
X001067Y005760D01*
X001081Y005726D02*
X001287Y005726D01*
X001385Y005825D02*
X001131Y005825D01*
X001230Y005923D02*
X002178Y005923D01*
X002178Y006022D02*
X001328Y006022D01*
X001427Y006120D02*
X002178Y006120D01*
X002668Y005580D02*
X002878Y005580D01*
X002878Y005309D01*
X002867Y005309D01*
X002754Y005263D01*
X002669Y005177D01*
X002622Y005065D01*
X002622Y004943D01*
X002669Y004831D01*
X002717Y004783D01*
X002717Y004742D01*
X002613Y004637D01*
X002595Y004679D01*
X002547Y004728D01*
X002547Y005088D01*
X002450Y005184D01*
X002327Y005307D01*
X002290Y005307D01*
X002290Y005420D01*
X002545Y005420D01*
X002668Y005543D01*
X002668Y005580D01*
X002654Y005529D02*
X002878Y005529D01*
X002878Y005431D02*
X002555Y005431D01*
X002401Y005234D02*
X002725Y005234D01*
X002651Y005135D02*
X002499Y005135D01*
X002547Y005037D02*
X002622Y005037D01*
X002624Y004938D02*
X002547Y004938D01*
X002547Y004840D02*
X002665Y004840D01*
X002717Y004741D02*
X002547Y004741D01*
X002610Y004643D02*
X002618Y004643D01*
X002926Y003986D02*
X002985Y003986D01*
X002450Y003451D01*
X002450Y003510D01*
X002926Y003986D01*
X002952Y003953D02*
X002893Y003953D01*
X002853Y003855D02*
X002795Y003855D01*
X002755Y003756D02*
X002696Y003756D01*
X002656Y003658D02*
X002598Y003658D01*
X002558Y003559D02*
X002499Y003559D01*
X002459Y003461D02*
X002450Y003461D01*
X002311Y003313D02*
X002290Y003291D01*
X002290Y003313D01*
X002311Y003313D01*
X002633Y003040D02*
X003284Y003692D01*
X003407Y003815D01*
X003407Y005321D01*
X003298Y005431D01*
X003298Y005600D01*
X003398Y005600D01*
X003398Y005995D01*
X003408Y005995D01*
X003408Y005600D01*
X003517Y005600D01*
X003537Y005580D01*
X003809Y005580D01*
X003809Y004355D01*
X003761Y004306D01*
X003714Y004194D01*
X003714Y004073D01*
X003761Y003961D01*
X003847Y003875D01*
X003959Y003828D01*
X004080Y003828D01*
X004192Y003875D01*
X004278Y003961D01*
X004324Y004073D01*
X004324Y004194D01*
X004278Y004306D01*
X004229Y004355D01*
X004229Y005530D01*
X004242Y005543D01*
X004242Y005580D01*
X004397Y005580D01*
X004360Y005492D01*
X004360Y005371D01*
X004407Y005259D01*
X004493Y005173D01*
X004605Y005127D01*
X004726Y005127D01*
X004830Y005170D01*
X004830Y003040D01*
X004262Y003040D01*
X004262Y003105D01*
X004146Y003222D01*
X004182Y003308D01*
X004182Y003430D01*
X004135Y003542D01*
X004050Y003628D01*
X003937Y003674D01*
X003816Y003674D01*
X003704Y003628D01*
X003618Y003542D01*
X003572Y003430D01*
X003572Y003308D01*
X003600Y003240D01*
X003307Y003240D01*
X003173Y003105D01*
X003173Y003020D01*
X003093Y003020D01*
X003093Y002625D01*
X003083Y002625D01*
X003083Y003020D01*
X002973Y003020D01*
X002953Y003040D01*
X002633Y003040D01*
X002659Y003067D02*
X003173Y003067D01*
X003232Y003165D02*
X002758Y003165D01*
X002856Y003264D02*
X003590Y003264D01*
X003572Y003362D02*
X002955Y003362D01*
X003053Y003461D02*
X003585Y003461D01*
X003635Y003559D02*
X003152Y003559D01*
X003250Y003658D02*
X003776Y003658D01*
X003977Y003658D02*
X004830Y003658D01*
X004830Y003756D02*
X003349Y003756D01*
X003407Y003855D02*
X003896Y003855D01*
X003768Y003953D02*
X003407Y003953D01*
X003407Y004052D02*
X003723Y004052D01*
X003714Y004150D02*
X003407Y004150D01*
X003407Y004249D02*
X003737Y004249D01*
X003802Y004347D02*
X003407Y004347D01*
X003407Y004446D02*
X003809Y004446D01*
X003809Y004544D02*
X003407Y004544D01*
X003407Y004643D02*
X003809Y004643D01*
X003809Y004741D02*
X003407Y004741D01*
X003407Y004840D02*
X003809Y004840D01*
X003809Y004938D02*
X003407Y004938D01*
X003407Y005037D02*
X003809Y005037D01*
X003809Y005135D02*
X003407Y005135D01*
X003407Y005234D02*
X003809Y005234D01*
X003809Y005332D02*
X003397Y005332D01*
X003298Y005431D02*
X003809Y005431D01*
X003809Y005529D02*
X003298Y005529D01*
X003398Y005628D02*
X003408Y005628D01*
X003398Y005726D02*
X003408Y005726D01*
X003398Y005825D02*
X003408Y005825D01*
X003398Y005923D02*
X003408Y005923D01*
X003408Y006005D02*
X003398Y006005D01*
X003398Y006400D01*
X003288Y006400D01*
X003268Y006420D01*
X003118Y006420D01*
X003126Y006428D01*
X003126Y006524D01*
X003237Y006524D01*
X003237Y006881D01*
X003294Y006881D01*
X003294Y006524D01*
X003443Y006524D01*
X003481Y006534D01*
X003487Y006537D01*
X003487Y006400D01*
X003408Y006400D01*
X003408Y006005D01*
X003408Y006022D02*
X003398Y006022D01*
X003398Y006120D02*
X003408Y006120D01*
X003398Y006219D02*
X003408Y006219D01*
X003398Y006317D02*
X003408Y006317D01*
X003487Y006416D02*
X003272Y006416D01*
X003126Y006514D02*
X003487Y006514D01*
X003294Y006613D02*
X003237Y006613D01*
X003237Y006711D02*
X003294Y006711D01*
X003294Y006810D02*
X003237Y006810D01*
X002958Y006983D02*
X002958Y007037D01*
X001813Y007037D01*
X001715Y007136D01*
X001715Y006973D01*
X001759Y006929D01*
X001813Y006983D01*
X002958Y006983D01*
X002958Y007007D02*
X001715Y007007D01*
X001715Y007105D02*
X001745Y007105D01*
X001295Y007007D02*
X001255Y007007D01*
X001295Y006908D02*
X001156Y006908D01*
X001188Y005628D02*
X001090Y005628D01*
X000701Y005140D02*
X000641Y005080D01*
X000527Y005080D01*
X000395Y005026D01*
X000395Y005194D01*
X000527Y005140D01*
X000701Y005140D01*
X000696Y005135D02*
X000395Y005135D01*
X000395Y005037D02*
X000422Y005037D01*
X000395Y004194D02*
X000527Y004140D01*
X000713Y004140D01*
X000830Y004188D01*
X000830Y004032D01*
X000713Y004080D01*
X000527Y004080D01*
X000395Y004026D01*
X000395Y004194D01*
X000395Y004150D02*
X000502Y004150D01*
X000458Y004052D02*
X000395Y004052D01*
X000738Y004150D02*
X000830Y004150D01*
X000830Y004052D02*
X000782Y004052D01*
X000830Y003188D02*
X000713Y003140D01*
X000527Y003140D01*
X000395Y003194D01*
X000395Y003026D01*
X000527Y003080D01*
X000713Y003080D01*
X000830Y003032D01*
X000830Y003188D01*
X000830Y003165D02*
X000774Y003165D01*
X000746Y003067D02*
X000830Y003067D01*
X000494Y003067D02*
X000395Y003067D01*
X000395Y003165D02*
X000466Y003165D01*
X000395Y002194D02*
X000527Y002140D01*
X000713Y002140D01*
X000830Y002188D01*
X000830Y002117D01*
X000770Y002057D01*
X000713Y002080D01*
X000527Y002080D01*
X000395Y002026D01*
X000395Y002194D01*
X000395Y002180D02*
X000430Y002180D01*
X000395Y002082D02*
X000795Y002082D01*
X000810Y002180D02*
X000830Y002180D01*
X001130Y001823D02*
X001130Y001417D01*
X000770Y001057D01*
X000713Y001080D01*
X000527Y001080D01*
X000395Y001026D01*
X000395Y001194D01*
X000527Y001140D01*
X000713Y001140D01*
X000886Y001212D01*
X001018Y001344D01*
X001090Y001517D01*
X001090Y001703D01*
X001067Y001760D01*
X001127Y001820D01*
X001130Y001823D01*
X001130Y001786D02*
X001093Y001786D01*
X001090Y001688D02*
X001130Y001688D01*
X001130Y001589D02*
X001090Y001589D01*
X001079Y001491D02*
X001130Y001491D01*
X001105Y001392D02*
X001038Y001392D01*
X001007Y001294D02*
X000968Y001294D01*
X000908Y001195D02*
X000846Y001195D01*
X000810Y001097D02*
X000395Y001097D01*
X001067Y000760D02*
X001550Y001243D01*
X001550Y001983D01*
X001660Y001983D01*
X001660Y001985D02*
X001660Y001216D01*
X001782Y001095D01*
X001782Y001052D01*
X001713Y001080D01*
X001527Y001080D01*
X001354Y001008D01*
X001222Y000876D01*
X001150Y000703D01*
X001150Y000517D01*
X001204Y000385D01*
X001036Y000385D01*
X001090Y000517D01*
X001090Y000703D01*
X001067Y000760D01*
X001108Y000801D02*
X001190Y000801D01*
X001206Y000900D02*
X001245Y000900D01*
X001305Y000998D02*
X001343Y000998D01*
X001403Y001097D02*
X001780Y001097D01*
X001681Y001195D02*
X001502Y001195D01*
X001550Y001294D02*
X001660Y001294D01*
X001660Y001392D02*
X001550Y001392D01*
X001550Y001491D02*
X001660Y001491D01*
X001660Y001589D02*
X001550Y001589D01*
X001550Y001688D02*
X001660Y001688D01*
X001660Y001786D02*
X001550Y001786D01*
X001550Y001885D02*
X001660Y001885D01*
X001656Y001983D02*
X001550Y001983D01*
X001656Y001983D02*
X001660Y001985D01*
X002438Y001640D02*
X002438Y001394D01*
X002778Y001053D01*
X002886Y001008D01*
X003018Y000876D01*
X003090Y000703D01*
X003090Y000517D01*
X003036Y000385D01*
X003204Y000385D01*
X003150Y000517D01*
X003150Y000703D01*
X003222Y000876D01*
X003354Y001008D01*
X003487Y001064D01*
X003383Y001168D01*
X002910Y001168D01*
X002438Y001640D01*
X002438Y001589D02*
X002488Y001589D01*
X002438Y001491D02*
X002587Y001491D01*
X002685Y001392D02*
X002439Y001392D01*
X002538Y001294D02*
X002784Y001294D01*
X002882Y001195D02*
X002636Y001195D01*
X002735Y001097D02*
X003454Y001097D01*
X003343Y000998D02*
X002897Y000998D01*
X002995Y000900D02*
X003245Y000900D01*
X003190Y000801D02*
X003050Y000801D01*
X003090Y000703D02*
X003150Y000703D01*
X003150Y000604D02*
X003090Y000604D01*
X003085Y000506D02*
X003155Y000506D01*
X003195Y000407D02*
X003045Y000407D01*
X002204Y000385D02*
X002036Y000385D01*
X002090Y000517D01*
X002090Y000703D01*
X002058Y000782D01*
X002147Y000782D01*
X002190Y000799D01*
X002150Y000703D01*
X002150Y000517D01*
X002204Y000385D01*
X002195Y000407D02*
X002045Y000407D01*
X002085Y000506D02*
X002155Y000506D01*
X002150Y000604D02*
X002090Y000604D01*
X002090Y000703D02*
X002150Y000703D01*
X001195Y000407D02*
X001045Y000407D01*
X001085Y000506D02*
X001155Y000506D01*
X001150Y000604D02*
X001090Y000604D01*
X001090Y000703D02*
X001150Y000703D01*
X003083Y002673D02*
X003093Y002673D01*
X003083Y002771D02*
X003093Y002771D01*
X003083Y002870D02*
X003093Y002870D01*
X003083Y002968D02*
X003093Y002968D01*
X003712Y002615D02*
X003712Y002282D01*
X003722Y002292D01*
X003722Y002615D01*
X003712Y002615D01*
X003712Y002574D02*
X003722Y002574D01*
X003712Y002476D02*
X003722Y002476D01*
X003712Y002377D02*
X003722Y002377D01*
X003650Y002220D02*
X003647Y002217D01*
X003647Y001724D01*
X003623Y001748D01*
X003573Y001748D01*
X003573Y001881D01*
X003294Y001881D01*
X003294Y001939D01*
X003237Y001939D01*
X003237Y002200D01*
X003294Y002200D01*
X003294Y001939D01*
X003573Y001939D01*
X003573Y002166D01*
X003564Y002200D01*
X003583Y002200D01*
X003603Y002220D01*
X003650Y002220D01*
X003647Y002180D02*
X003569Y002180D01*
X003573Y002082D02*
X003647Y002082D01*
X003647Y001983D02*
X003573Y001983D01*
X003647Y001885D02*
X003294Y001885D01*
X003294Y001983D02*
X003237Y001983D01*
X003237Y002082D02*
X003294Y002082D01*
X003294Y002180D02*
X003237Y002180D01*
X003573Y001786D02*
X003647Y001786D01*
X003867Y001504D02*
X004202Y001504D01*
X004240Y001541D01*
X004240Y001365D01*
X004339Y001265D01*
X004756Y001265D01*
X004800Y001310D01*
X004824Y001296D01*
X004862Y001285D01*
X005001Y001285D01*
X005001Y001751D01*
X005039Y001751D01*
X005039Y001285D01*
X005178Y001285D01*
X005216Y001296D01*
X005240Y001310D01*
X005284Y001265D01*
X005701Y001265D01*
X005798Y001362D01*
X005798Y001135D01*
X005921Y001012D01*
X006173Y000760D01*
X006150Y000703D01*
X006150Y000517D01*
X006204Y000385D01*
X006036Y000385D01*
X006090Y000517D01*
X006090Y000703D01*
X006018Y000876D01*
X005886Y001008D01*
X005713Y001080D01*
X005527Y001080D01*
X005470Y001057D01*
X005396Y001131D01*
X005273Y001254D01*
X004117Y001254D01*
X003867Y001504D01*
X003880Y001491D02*
X004240Y001491D01*
X004240Y001392D02*
X003979Y001392D01*
X004077Y001294D02*
X004311Y001294D01*
X004784Y001294D02*
X004832Y001294D01*
X005001Y001294D02*
X005039Y001294D01*
X005039Y001392D02*
X005001Y001392D01*
X005001Y001491D02*
X005039Y001491D01*
X005039Y001589D02*
X005001Y001589D01*
X005001Y001688D02*
X005039Y001688D01*
X005208Y001294D02*
X005256Y001294D01*
X005332Y001195D02*
X005798Y001195D01*
X005837Y001097D02*
X005430Y001097D01*
X005099Y000834D02*
X005173Y000760D01*
X005150Y000703D01*
X005150Y000517D01*
X005204Y000385D01*
X005036Y000385D01*
X005090Y000517D01*
X005090Y000703D01*
X005036Y000834D01*
X005099Y000834D01*
X005132Y000801D02*
X005050Y000801D01*
X005090Y000703D02*
X005150Y000703D01*
X005150Y000604D02*
X005090Y000604D01*
X005085Y000506D02*
X005155Y000506D01*
X005195Y000407D02*
X005045Y000407D01*
X004204Y000385D02*
X004198Y000400D01*
X004150Y000400D01*
X004074Y000477D01*
X004036Y000385D01*
X004204Y000385D01*
X004143Y000407D02*
X004045Y000407D01*
X005798Y002178D02*
X005702Y002273D01*
X005702Y002312D01*
X005579Y002435D01*
X005145Y002435D01*
X004942Y002637D01*
X004942Y002928D01*
X005570Y002928D01*
X005587Y002944D01*
X005798Y002733D01*
X005798Y002178D01*
X005798Y002180D02*
X005795Y002180D01*
X005798Y002279D02*
X005702Y002279D01*
X005637Y002377D02*
X005798Y002377D01*
X005798Y002476D02*
X005104Y002476D01*
X005005Y002574D02*
X005798Y002574D01*
X005798Y002673D02*
X004942Y002673D01*
X004942Y002771D02*
X005760Y002771D01*
X005661Y002870D02*
X004942Y002870D01*
X004830Y003067D02*
X004262Y003067D01*
X004203Y003165D02*
X004830Y003165D01*
X004830Y003264D02*
X004163Y003264D01*
X004182Y003362D02*
X004830Y003362D01*
X004830Y003461D02*
X004169Y003461D01*
X004118Y003559D02*
X004830Y003559D01*
X004830Y003855D02*
X004143Y003855D01*
X004270Y003953D02*
X004830Y003953D01*
X004830Y004052D02*
X004316Y004052D01*
X004324Y004150D02*
X004830Y004150D01*
X004830Y004249D02*
X004302Y004249D01*
X004237Y004347D02*
X004830Y004347D01*
X004830Y004446D02*
X004229Y004446D01*
X004229Y004544D02*
X004830Y004544D01*
X004830Y004643D02*
X004229Y004643D01*
X004229Y004741D02*
X004830Y004741D01*
X004830Y004840D02*
X004229Y004840D01*
X004229Y004938D02*
X004830Y004938D01*
X004830Y005037D02*
X004229Y005037D01*
X004229Y005135D02*
X004585Y005135D01*
X004746Y005135D02*
X004830Y005135D01*
X004432Y005234D02*
X004229Y005234D01*
X004229Y005332D02*
X004377Y005332D01*
X004360Y005431D02*
X004229Y005431D01*
X004229Y005529D02*
X004376Y005529D01*
X004137Y006420D02*
X003927Y006420D01*
X003927Y006457D01*
X003907Y006478D01*
X003907Y006504D01*
X004137Y006504D01*
X004137Y006420D01*
X003537Y007347D02*
X003537Y007432D01*
X003622Y007432D01*
X003537Y007347D01*
X003537Y007401D02*
X003591Y007401D01*
X003203Y008389D02*
X003037Y008389D01*
X003090Y008517D01*
X003090Y008703D01*
X003036Y008835D01*
X003204Y008835D01*
X003150Y008703D01*
X003150Y008517D01*
X003203Y008389D01*
X003163Y008484D02*
X003077Y008484D01*
X003090Y008583D02*
X003150Y008583D01*
X003150Y008681D02*
X003090Y008681D01*
X003059Y008780D02*
X003181Y008780D01*
X004036Y008835D02*
X004204Y008835D01*
X004150Y008703D01*
X004150Y008517D01*
X004203Y008389D01*
X004037Y008389D01*
X004090Y008517D01*
X004090Y008703D01*
X004036Y008835D01*
X004059Y008780D02*
X004181Y008780D01*
X004150Y008681D02*
X004090Y008681D01*
X004090Y008583D02*
X004150Y008583D01*
X004163Y008484D02*
X004077Y008484D01*
X005063Y008451D02*
X005090Y008517D01*
X005090Y008703D01*
X005036Y008835D01*
X005204Y008835D01*
X005150Y008703D01*
X005150Y008517D01*
X005206Y008381D01*
X005179Y008354D01*
X005095Y008438D01*
X005063Y008451D01*
X005077Y008484D02*
X005163Y008484D01*
X005150Y008583D02*
X005090Y008583D01*
X005090Y008681D02*
X005150Y008681D01*
X005181Y008780D02*
X005059Y008780D01*
X005147Y008386D02*
X005204Y008386D01*
X005509Y008090D02*
X005803Y008090D01*
X005831Y008189D02*
X005902Y008189D01*
X005962Y008287D02*
X006000Y008287D01*
X006036Y008386D02*
X006099Y008386D01*
X006077Y008484D02*
X006163Y008484D01*
X006150Y008583D02*
X006090Y008583D01*
X006090Y008681D02*
X006150Y008681D01*
X006181Y008780D02*
X006059Y008780D01*
X006397Y008090D02*
X007845Y008090D01*
X007831Y008189D02*
X007845Y008189D01*
X007409Y008189D02*
X006831Y008189D01*
X006962Y008287D02*
X007278Y008287D01*
X007204Y008386D02*
X007036Y008386D01*
X007077Y008484D02*
X007163Y008484D01*
X007150Y008583D02*
X007090Y008583D01*
X007090Y008681D02*
X007150Y008681D01*
X007181Y008780D02*
X007059Y008780D01*
X007337Y007992D02*
X006299Y007992D01*
X005705Y007992D02*
X005410Y007992D01*
X005402Y006810D02*
X005438Y006810D01*
X006456Y005726D02*
X007159Y005726D01*
X007150Y005628D02*
X006456Y005628D01*
X006456Y005529D02*
X007150Y005529D01*
X007144Y005431D02*
X006456Y005431D01*
X006370Y005240D02*
X006502Y005108D01*
X006531Y005108D01*
X006425Y005135D02*
X006848Y005135D01*
X007127Y004820D02*
X007470Y005163D01*
X007527Y005140D01*
X007713Y005140D01*
X007845Y005194D01*
X007845Y005026D01*
X007713Y005080D01*
X007527Y005080D01*
X007354Y005008D01*
X007222Y004876D01*
X007198Y004820D01*
X007127Y004820D01*
X007146Y004840D02*
X007206Y004840D01*
X007245Y004938D02*
X007283Y004938D01*
X007343Y005037D02*
X007422Y005037D01*
X007442Y005135D02*
X007845Y005135D01*
X007845Y005037D02*
X007818Y005037D01*
X007198Y004400D02*
X007222Y004344D01*
X007354Y004212D01*
X007527Y004140D01*
X007713Y004140D01*
X007845Y004194D01*
X007845Y004026D01*
X007713Y004080D01*
X007527Y004080D01*
X007470Y004057D01*
X007127Y004400D01*
X007198Y004400D01*
X007180Y004347D02*
X007220Y004347D01*
X007278Y004249D02*
X007317Y004249D01*
X007377Y004150D02*
X007502Y004150D01*
X007738Y004150D02*
X007845Y004150D01*
X007845Y004052D02*
X007782Y004052D01*
X007173Y003760D02*
X006760Y004173D01*
X006354Y004173D01*
X007470Y003057D01*
X007527Y003080D01*
X007713Y003080D01*
X007845Y003026D01*
X007845Y003194D01*
X007713Y003140D01*
X007527Y003140D01*
X007354Y003212D01*
X007222Y003344D01*
X007150Y003517D01*
X007150Y003703D01*
X007173Y003760D01*
X007172Y003756D02*
X006771Y003756D01*
X006869Y003658D02*
X007150Y003658D01*
X007150Y003559D02*
X006968Y003559D01*
X007066Y003461D02*
X007173Y003461D01*
X007165Y003362D02*
X007214Y003362D01*
X007263Y003264D02*
X007302Y003264D01*
X007362Y003165D02*
X007466Y003165D01*
X007460Y003067D02*
X007494Y003067D01*
X007746Y003067D02*
X007845Y003067D01*
X007845Y003165D02*
X007774Y003165D01*
X007173Y002760D02*
X007150Y002703D01*
X007150Y002605D01*
X005830Y003925D01*
X005812Y003943D01*
X005990Y003943D01*
X007173Y002760D01*
X007162Y002771D02*
X006984Y002771D01*
X007064Y002870D02*
X006885Y002870D01*
X006965Y002968D02*
X006787Y002968D01*
X006867Y003067D02*
X006688Y003067D01*
X006768Y003165D02*
X006590Y003165D01*
X006670Y003264D02*
X006491Y003264D01*
X006571Y003362D02*
X006393Y003362D01*
X006473Y003461D02*
X006294Y003461D01*
X006374Y003559D02*
X006196Y003559D01*
X006276Y003658D02*
X006097Y003658D01*
X006177Y003756D02*
X005999Y003756D01*
X006079Y003855D02*
X005900Y003855D01*
X006377Y004150D02*
X006783Y004150D01*
X006882Y004052D02*
X006475Y004052D01*
X006574Y003953D02*
X006980Y003953D01*
X007079Y003855D02*
X006672Y003855D01*
X006378Y002783D02*
X007253Y001908D01*
X007222Y001876D01*
X007150Y001703D01*
X007150Y001517D01*
X007222Y001344D01*
X007354Y001212D01*
X007527Y001140D01*
X007713Y001140D01*
X007845Y001194D01*
X007845Y001026D01*
X007713Y001080D01*
X007527Y001080D01*
X007470Y001057D01*
X006378Y002149D01*
X006378Y002783D01*
X006378Y002771D02*
X006390Y002771D01*
X006378Y002673D02*
X006488Y002673D01*
X006587Y002574D02*
X006378Y002574D01*
X006378Y002476D02*
X006685Y002476D01*
X006784Y002377D02*
X006378Y002377D01*
X006378Y002279D02*
X006882Y002279D01*
X006981Y002180D02*
X006378Y002180D01*
X006445Y002082D02*
X007079Y002082D01*
X007178Y001983D02*
X006544Y001983D01*
X006642Y001885D02*
X007230Y001885D01*
X007184Y001786D02*
X006741Y001786D01*
X006839Y001688D02*
X007150Y001688D01*
X007150Y001589D02*
X006938Y001589D01*
X007036Y001491D02*
X007161Y001491D01*
X007135Y001392D02*
X007202Y001392D01*
X007233Y001294D02*
X007272Y001294D01*
X007332Y001195D02*
X007394Y001195D01*
X007430Y001097D02*
X007845Y001097D01*
X007173Y000760D02*
X007150Y000703D01*
X007150Y000517D01*
X007204Y000385D01*
X007036Y000385D01*
X007090Y000517D01*
X007090Y000703D01*
X007018Y000876D01*
X006886Y001008D01*
X006713Y001080D01*
X006527Y001080D01*
X006470Y001057D01*
X006218Y001309D01*
X006218Y001715D01*
X007173Y000760D01*
X007132Y000801D02*
X007050Y000801D01*
X007034Y000900D02*
X006995Y000900D01*
X006935Y000998D02*
X006897Y000998D01*
X006837Y001097D02*
X006430Y001097D01*
X006332Y001195D02*
X006738Y001195D01*
X006640Y001294D02*
X006233Y001294D01*
X006218Y001392D02*
X006541Y001392D01*
X006443Y001491D02*
X006218Y001491D01*
X006218Y001589D02*
X006344Y001589D01*
X006246Y001688D02*
X006218Y001688D01*
X005798Y001294D02*
X005729Y001294D01*
X005897Y000998D02*
X005935Y000998D01*
X005995Y000900D02*
X006034Y000900D01*
X006050Y000801D02*
X006132Y000801D01*
X006150Y000703D02*
X006090Y000703D01*
X006090Y000604D02*
X006150Y000604D01*
X006155Y000506D02*
X006085Y000506D01*
X006045Y000407D02*
X006195Y000407D01*
X007045Y000407D02*
X007195Y000407D01*
X007155Y000506D02*
X007085Y000506D01*
X007090Y000604D02*
X007150Y000604D01*
X007150Y000703D02*
X007090Y000703D01*
X007713Y002080D02*
X007845Y002026D01*
X007845Y002194D01*
X007713Y002140D01*
X007615Y002140D01*
X007675Y002080D01*
X007713Y002080D01*
X007673Y002082D02*
X007845Y002082D01*
X007845Y002180D02*
X007810Y002180D01*
X007150Y002673D02*
X007082Y002673D01*
X007131Y005825D02*
X007200Y005825D01*
X007230Y005923D02*
X007268Y005923D01*
X007328Y006022D02*
X007385Y006022D01*
X007427Y006120D02*
X007845Y006120D01*
X007845Y007105D02*
X006802Y007105D01*
X002878Y005332D02*
X002290Y005332D01*
X001450Y005065D02*
X001449Y005064D01*
X001450Y005063D01*
X001450Y005065D01*
X001307Y008287D02*
X000933Y008287D01*
X001011Y008386D02*
X001229Y008386D01*
X001188Y008484D02*
X001052Y008484D01*
X001064Y008681D02*
X001176Y008681D01*
X001202Y008780D02*
X001038Y008780D01*
X002038Y008780D02*
X002181Y008780D01*
X002150Y008681D02*
X002064Y008681D01*
M02*
