G75*
G70*
%OFA0B0*%
%FSLAX24Y24*%
%IPPOS*%
%LPD*%
%AMOC8*
5,1,8,0,0,1.08239X$1,22.5*
%
%ADD10R,0.0260X0.0540*%
%ADD11R,0.0540X0.0260*%
%ADD12R,0.0512X0.0355*%
%ADD13R,0.0355X0.0512*%
%ADD14R,0.0316X0.0709*%
%ADD15C,0.0640*%
%ADD16C,0.0310*%
D10*
X002458Y002620D03*
X002773Y002620D03*
X003088Y002620D03*
X003403Y002620D03*
X003717Y002620D03*
X004032Y002620D03*
X004347Y002620D03*
X004662Y002620D03*
X004662Y006000D03*
X004347Y006000D03*
X004032Y006000D03*
X003717Y006000D03*
X003403Y006000D03*
X003088Y006000D03*
X002773Y006000D03*
X002458Y006000D03*
D11*
X001870Y005412D03*
X001870Y005097D03*
X001870Y004782D03*
X001870Y004467D03*
X001870Y004153D03*
X001870Y003838D03*
X001870Y003523D03*
X001870Y003208D03*
X005250Y003208D03*
X005250Y003523D03*
X005250Y003838D03*
X005250Y004153D03*
X005250Y004467D03*
X005250Y004782D03*
X005250Y005097D03*
X005250Y005412D03*
D12*
X006070Y005566D03*
X006070Y006274D03*
X002720Y006656D03*
X002120Y006656D03*
X002120Y007364D03*
X002720Y007364D03*
D13*
X003266Y006910D03*
X003974Y006910D03*
X004366Y006910D03*
X005074Y006910D03*
X005766Y007110D03*
X006474Y007110D03*
X003974Y001910D03*
X003266Y001910D03*
D14*
X004548Y001770D03*
X005020Y001770D03*
X005492Y001770D03*
D15*
X000620Y000610D03*
X000620Y001610D03*
X000620Y002610D03*
X000620Y003610D03*
X000620Y004610D03*
X000620Y005610D03*
X000620Y006610D03*
X000620Y007610D03*
X000620Y008610D03*
X001620Y008610D03*
X002620Y008610D03*
X003620Y008610D03*
X004620Y008610D03*
X005620Y008610D03*
X006620Y008610D03*
X007620Y008610D03*
X007620Y007610D03*
X007620Y006610D03*
X007620Y005610D03*
X007620Y004610D03*
X007620Y003610D03*
X007620Y002610D03*
X007620Y001610D03*
X007620Y000610D03*
X006620Y000610D03*
X005620Y000610D03*
X004620Y000610D03*
X003620Y000610D03*
X002620Y000610D03*
X001620Y000610D03*
D16*
X002087Y001087D03*
X001596Y002288D03*
X002934Y004291D03*
X002337Y004506D03*
X002927Y005004D03*
X004019Y004133D03*
X003877Y003369D03*
X005140Y002865D03*
X006531Y005108D03*
X004665Y005432D03*
X003232Y007374D03*
X001767Y007010D03*
X001127Y007898D03*
X001214Y004868D03*
X004922Y008179D03*
M02*
