G75*
G70*
%OFA0B0*%
%FSLAX24Y24*%
%IPPOS*%
%LPD*%
%AMOC8*
5,1,8,0,0,1.08239X$1,22.5*
%
%ADD10R,0.0200X0.0480*%
%ADD11R,0.0480X0.0200*%
%ADD12R,0.0452X0.0295*%
%ADD13R,0.0295X0.0452*%
%ADD14R,0.0256X0.0649*%
D10*
X002458Y002620D03*
X002773Y002620D03*
X003088Y002620D03*
X003403Y002620D03*
X003717Y002620D03*
X004032Y002620D03*
X004347Y002620D03*
X004662Y002620D03*
X004662Y006000D03*
X004347Y006000D03*
X004032Y006000D03*
X003717Y006000D03*
X003403Y006000D03*
X003088Y006000D03*
X002773Y006000D03*
X002458Y006000D03*
D11*
X001870Y005412D03*
X001870Y005097D03*
X001870Y004782D03*
X001870Y004467D03*
X001870Y004153D03*
X001870Y003838D03*
X001870Y003523D03*
X001870Y003208D03*
X005250Y003208D03*
X005250Y003523D03*
X005250Y003838D03*
X005250Y004153D03*
X005250Y004467D03*
X005250Y004782D03*
X005250Y005097D03*
X005250Y005412D03*
D12*
X006070Y005566D03*
X006070Y006274D03*
X002720Y006656D03*
X002120Y006656D03*
X002120Y007364D03*
X002720Y007364D03*
D13*
X003266Y006910D03*
X003974Y006910D03*
X004366Y006910D03*
X005074Y006910D03*
X005766Y007110D03*
X006474Y007110D03*
X003974Y001910D03*
X003266Y001910D03*
D14*
X004548Y001770D03*
X005020Y001770D03*
X005492Y001770D03*
M02*
