G75*
G70*
%OFA0B0*%
%FSLAX24Y24*%
%IPPOS*%
%LPD*%
%AMOC8*
5,1,8,0,0,1.08239X$1,22.5*
%
%ADD10C,0.0060*%
%ADD11C,0.0040*%
%ADD12C,0.0080*%
D10*
X000849Y000946D02*
X000972Y001068D01*
X000972Y001191D01*
X000849Y001191D01*
X000727Y001068D01*
X000819Y001160D02*
X000941Y001038D01*
X001027Y000952D02*
X001119Y000921D01*
X001150Y000891D01*
X001150Y000829D01*
X001088Y000768D01*
X001027Y000768D01*
X000966Y000829D01*
X000966Y000891D01*
X001027Y000952D02*
X001119Y001044D01*
X001242Y000921D01*
X001413Y000961D02*
X001413Y001134D01*
X001500Y001221D01*
X001587Y001134D01*
X001587Y000961D01*
X001708Y001004D02*
X001708Y001091D01*
X001838Y001091D01*
X001882Y001047D01*
X001882Y001004D01*
X001838Y000961D01*
X001751Y000961D01*
X001708Y001004D01*
X001708Y001091D02*
X001795Y001177D01*
X001882Y001221D01*
X001587Y001091D02*
X001413Y001091D01*
X001438Y001529D02*
X001438Y001789D01*
X001308Y001659D01*
X001481Y001659D01*
X001187Y001659D02*
X001013Y001659D01*
X001013Y001702D02*
X001100Y001789D01*
X001187Y001702D01*
X001187Y001529D01*
X001013Y001529D02*
X001013Y001702D01*
X001051Y002467D02*
X001051Y002641D01*
X001138Y002728D01*
X001225Y002641D01*
X001225Y002467D01*
X001346Y002511D02*
X001390Y002467D01*
X001476Y002467D01*
X001520Y002511D01*
X001520Y002554D01*
X001476Y002597D01*
X001433Y002597D01*
X001476Y002597D02*
X001520Y002641D01*
X001520Y002684D01*
X001476Y002728D01*
X001390Y002728D01*
X001346Y002684D01*
X001225Y002597D02*
X001051Y002597D01*
X000996Y003705D02*
X000996Y003879D01*
X001083Y003965D01*
X001170Y003879D01*
X001170Y003705D01*
X001291Y003705D02*
X001465Y003879D01*
X001465Y003922D01*
X001421Y003965D01*
X001334Y003965D01*
X001291Y003922D01*
X001170Y003835D02*
X000996Y003835D01*
X001291Y003705D02*
X001465Y003705D01*
X001498Y004390D02*
X001325Y004390D01*
X001203Y004390D02*
X001203Y004563D01*
X001117Y004650D01*
X001030Y004563D01*
X001030Y004390D01*
X001030Y004520D02*
X001203Y004520D01*
X001325Y004563D02*
X001411Y004650D01*
X001411Y004390D01*
X001398Y005570D02*
X001355Y005613D01*
X001528Y005787D01*
X001528Y005613D01*
X001485Y005570D01*
X001398Y005570D01*
X001355Y005613D02*
X001355Y005787D01*
X001398Y005830D01*
X001485Y005830D01*
X001528Y005787D01*
X001233Y005743D02*
X001233Y005570D01*
X001233Y005700D02*
X001060Y005700D01*
X001060Y005743D02*
X001060Y005570D01*
X001060Y005743D02*
X001147Y005830D01*
X001233Y005743D01*
X001307Y006116D02*
X001394Y006116D01*
X001437Y006160D01*
X001558Y006160D02*
X001601Y006116D01*
X001688Y006116D01*
X001732Y006160D01*
X001732Y006333D02*
X001688Y006376D01*
X001601Y006376D01*
X001558Y006333D01*
X001558Y006160D01*
X001437Y006333D02*
X001394Y006376D01*
X001307Y006376D01*
X001263Y006333D01*
X001263Y006160D01*
X001307Y006116D01*
X001142Y006203D02*
X001142Y006376D01*
X001142Y006203D02*
X001056Y006116D01*
X000969Y006203D01*
X000969Y006376D01*
X001080Y006900D02*
X001080Y007030D01*
X001123Y007073D01*
X001210Y007073D01*
X001253Y007030D01*
X001253Y006900D01*
X001253Y006987D02*
X001340Y007073D01*
X001340Y007195D02*
X001167Y007195D01*
X001080Y007281D01*
X001167Y007368D01*
X001340Y007368D01*
X001340Y007489D02*
X001253Y007576D01*
X001340Y007663D01*
X001080Y007663D01*
X001080Y007489D02*
X001340Y007489D01*
X001210Y007368D02*
X001210Y007195D01*
X001340Y006900D02*
X001080Y006900D01*
X001628Y007485D02*
X001748Y007485D01*
X001778Y007515D01*
X001778Y007576D01*
X001748Y007606D01*
X001778Y007706D02*
X001658Y007827D01*
X001628Y007827D01*
X001598Y007797D01*
X001598Y007736D01*
X001628Y007706D01*
X001628Y007606D02*
X001598Y007576D01*
X001598Y007515D01*
X001628Y007485D01*
X001778Y007706D02*
X001778Y007827D01*
X002250Y007963D02*
X002293Y007920D01*
X002380Y007920D01*
X002423Y007963D01*
X002423Y008050D01*
X002380Y008093D01*
X002337Y008093D01*
X002250Y008050D01*
X002250Y008180D01*
X002423Y008180D01*
X002545Y008093D02*
X002631Y007920D01*
X002718Y008093D01*
X002811Y007785D02*
X002811Y007605D01*
X002751Y007605D02*
X002871Y007605D01*
X002751Y007725D02*
X002811Y007785D01*
X002650Y007755D02*
X002650Y007695D01*
X002620Y007665D01*
X002530Y007665D01*
X002530Y007605D02*
X002530Y007785D01*
X002620Y007785D01*
X002650Y007755D01*
X002590Y007665D02*
X002650Y007605D01*
X002484Y007128D02*
X002484Y006892D01*
X002356Y006892D02*
X002356Y007128D01*
X001884Y007128D02*
X001884Y006892D01*
X000932Y008010D02*
X000842Y008010D01*
X000842Y008190D01*
X000932Y008190D01*
X000962Y008160D01*
X000962Y008040D01*
X000932Y008010D01*
X000741Y008010D02*
X000741Y008190D01*
X000621Y008190D02*
X000741Y008010D01*
X000621Y008010D02*
X000621Y008190D01*
X000520Y008160D02*
X000490Y008190D01*
X000430Y008190D01*
X000400Y008160D01*
X000400Y008040D01*
X000430Y008010D01*
X000490Y008010D01*
X000520Y008040D01*
X000520Y008100D01*
X000460Y008100D01*
X001010Y008340D02*
X001010Y008430D01*
X001040Y008460D01*
X001070Y008460D01*
X001100Y008430D01*
X001100Y008340D01*
X001190Y008340D02*
X001190Y008430D01*
X001160Y008460D01*
X001130Y008460D01*
X001100Y008430D01*
X001190Y008340D02*
X001010Y008340D01*
X001010Y008561D02*
X001190Y008561D01*
X001190Y008681D01*
X001190Y008782D02*
X001010Y008782D01*
X001100Y008812D02*
X001190Y008902D01*
X001130Y008782D02*
X001010Y008902D01*
X002956Y007128D02*
X002956Y006892D01*
X003502Y006674D02*
X003738Y006674D01*
X003738Y007146D02*
X003502Y007146D01*
X003772Y007253D02*
X003772Y007374D01*
X003802Y007404D01*
X003862Y007404D01*
X003892Y007374D01*
X003993Y007374D02*
X004023Y007404D01*
X004083Y007404D01*
X004113Y007374D01*
X004113Y007344D01*
X004083Y007314D01*
X004113Y007284D01*
X004113Y007253D01*
X004083Y007223D01*
X004023Y007223D01*
X003993Y007253D01*
X004053Y007314D02*
X004083Y007314D01*
X003892Y007253D02*
X003862Y007223D01*
X003802Y007223D01*
X003772Y007253D01*
X003838Y007920D02*
X003665Y008180D01*
X003543Y008137D02*
X003543Y008050D01*
X003500Y008007D01*
X003370Y008007D01*
X003457Y008007D02*
X003543Y007920D01*
X003665Y007920D02*
X003838Y008180D01*
X003543Y008137D02*
X003500Y008180D01*
X003370Y008180D01*
X003370Y007920D01*
X004200Y008190D02*
X004373Y008190D01*
X004287Y008190D02*
X004287Y007930D01*
X004495Y007930D02*
X004668Y008190D01*
X004495Y008190D02*
X004668Y007930D01*
X005250Y007920D02*
X005380Y007920D01*
X005423Y007963D01*
X005423Y008137D01*
X005380Y008180D01*
X005250Y008180D01*
X005250Y007920D01*
X005545Y008180D02*
X005718Y008180D01*
X005631Y008180D02*
X005631Y007920D01*
X005839Y007920D02*
X005839Y008180D01*
X005969Y008180D01*
X006013Y008137D01*
X006013Y008050D01*
X005969Y008007D01*
X005839Y008007D01*
X005926Y008007D02*
X006013Y007920D01*
X006292Y008033D02*
X006292Y008153D01*
X006352Y008214D01*
X006412Y008153D01*
X006412Y008033D01*
X006412Y008123D02*
X006292Y008123D01*
X006200Y008277D02*
X006230Y008307D01*
X006230Y008367D01*
X006200Y008397D01*
X006140Y008397D01*
X006140Y008337D01*
X006080Y008277D02*
X006200Y008277D01*
X006080Y008277D02*
X006050Y008307D01*
X006050Y008367D01*
X006080Y008397D01*
X006050Y008498D02*
X006050Y008588D01*
X006080Y008618D01*
X006140Y008618D01*
X006170Y008588D01*
X006170Y008498D01*
X006230Y008498D02*
X006050Y008498D01*
X006170Y008558D02*
X006230Y008618D01*
X006230Y008719D02*
X006050Y008719D01*
X006230Y008839D01*
X006050Y008839D01*
X006513Y008214D02*
X006603Y008214D01*
X006633Y008184D01*
X006633Y008123D01*
X006603Y008093D01*
X006513Y008093D01*
X006513Y008033D02*
X006513Y008214D01*
X006573Y008093D02*
X006633Y008033D01*
X006734Y008033D02*
X006734Y008214D01*
X006854Y008214D01*
X006955Y008214D02*
X007075Y008214D01*
X007015Y008123D02*
X006955Y008123D01*
X006955Y008033D02*
X006955Y008214D01*
X006794Y008123D02*
X006734Y008123D01*
X006734Y008033D02*
X006854Y008033D01*
X006871Y007740D02*
X006871Y007480D01*
X006785Y007480D02*
X006958Y007480D01*
X007079Y007523D02*
X007123Y007480D01*
X007209Y007480D01*
X007253Y007523D01*
X007253Y007567D01*
X007209Y007610D01*
X007166Y007610D01*
X007209Y007610D02*
X007253Y007653D01*
X007253Y007697D01*
X007209Y007740D01*
X007123Y007740D01*
X007079Y007697D01*
X006871Y007740D02*
X006785Y007653D01*
X006663Y007697D02*
X006620Y007740D01*
X006490Y007740D01*
X006490Y007480D01*
X006620Y007480D01*
X006663Y007523D01*
X006663Y007697D01*
X006238Y007346D02*
X006002Y007346D01*
X005848Y007418D02*
X005728Y007418D01*
X005848Y007538D01*
X005848Y007568D01*
X005818Y007598D01*
X005758Y007598D01*
X005728Y007568D01*
X005627Y007568D02*
X005627Y007508D01*
X005597Y007478D01*
X005507Y007478D01*
X005507Y007418D02*
X005507Y007598D01*
X005597Y007598D01*
X005627Y007568D01*
X005567Y007478D02*
X005627Y007418D01*
X006002Y006874D02*
X006238Y006874D01*
X006496Y006825D02*
X006496Y006564D01*
X006626Y006564D01*
X006670Y006608D01*
X006670Y006781D01*
X006626Y006825D01*
X006496Y006825D01*
X006791Y006738D02*
X006878Y006825D01*
X006878Y006564D01*
X006964Y006564D02*
X006791Y006564D01*
X007086Y006564D02*
X007259Y006738D01*
X007259Y006781D01*
X007216Y006825D01*
X007129Y006825D01*
X007086Y006781D01*
X007086Y006564D02*
X007259Y006564D01*
X007200Y005759D02*
X007200Y005499D01*
X007286Y005499D02*
X007113Y005499D01*
X006992Y005499D02*
X006818Y005499D01*
X006905Y005499D02*
X006905Y005759D01*
X006818Y005672D01*
X006697Y005716D02*
X006697Y005542D01*
X006654Y005499D01*
X006524Y005499D01*
X006524Y005759D01*
X006654Y005759D01*
X006697Y005716D01*
X007113Y005672D02*
X007200Y005759D01*
X007204Y004745D02*
X007117Y004745D01*
X007074Y004702D01*
X007074Y004528D01*
X007248Y004702D01*
X007248Y004528D01*
X007204Y004485D01*
X007117Y004485D01*
X007074Y004528D01*
X006953Y004485D02*
X006779Y004485D01*
X006866Y004485D02*
X006866Y004745D01*
X006779Y004658D01*
X006658Y004702D02*
X006658Y004528D01*
X006615Y004485D01*
X006485Y004485D01*
X006485Y004745D01*
X006615Y004745D01*
X006658Y004702D01*
X007204Y004745D02*
X007248Y004702D01*
X007176Y003735D02*
X007089Y003735D01*
X007046Y003691D01*
X007046Y003648D01*
X007089Y003605D01*
X007219Y003605D01*
X007219Y003691D02*
X007219Y003518D01*
X007176Y003475D01*
X007089Y003475D01*
X007046Y003518D01*
X006925Y003518D02*
X006925Y003691D01*
X006881Y003735D01*
X006751Y003735D01*
X006751Y003475D01*
X006881Y003475D01*
X006925Y003518D01*
X007176Y003735D02*
X007219Y003691D01*
X007201Y002743D02*
X007115Y002743D01*
X007071Y002700D01*
X007071Y002657D01*
X007115Y002613D01*
X007201Y002613D01*
X007245Y002570D01*
X007245Y002527D01*
X007201Y002483D01*
X007115Y002483D01*
X007071Y002527D01*
X007071Y002570D01*
X007115Y002613D01*
X007201Y002613D02*
X007245Y002657D01*
X007245Y002700D01*
X007201Y002743D01*
X006950Y002700D02*
X006950Y002527D01*
X006907Y002483D01*
X006777Y002483D01*
X006777Y002743D01*
X006907Y002743D01*
X006950Y002700D01*
X006970Y001830D02*
X006840Y001830D01*
X006840Y001570D01*
X006970Y001570D01*
X007013Y001613D01*
X007013Y001787D01*
X006970Y001830D01*
X007135Y001830D02*
X007308Y001830D01*
X007308Y001787D01*
X007135Y001613D01*
X007135Y001570D01*
X007367Y001217D02*
X007336Y001125D01*
X007336Y001003D01*
X007428Y001095D01*
X007490Y001095D01*
X007520Y001064D01*
X007520Y001003D01*
X007459Y000941D01*
X007398Y000941D01*
X007336Y001003D01*
X007312Y000856D02*
X007189Y000978D01*
X007128Y000978D01*
X007036Y000886D01*
X007220Y000702D01*
X007312Y000794D01*
X007312Y000856D01*
X006818Y001013D02*
X006775Y000970D01*
X006688Y000970D01*
X006645Y001013D01*
X006645Y001100D02*
X006731Y001143D01*
X006775Y001143D01*
X006818Y001100D01*
X006818Y001013D01*
X006645Y001100D02*
X006645Y001230D01*
X006818Y001230D01*
X006523Y001187D02*
X006523Y001013D01*
X006480Y000970D01*
X006350Y000970D01*
X006350Y001230D01*
X006480Y001230D01*
X006523Y001187D01*
X005838Y001080D02*
X005665Y001080D01*
X005795Y001210D01*
X005795Y000950D01*
X005543Y000993D02*
X005543Y001167D01*
X005500Y001210D01*
X005370Y001210D01*
X005370Y000950D01*
X005500Y000950D01*
X005543Y000993D01*
X004848Y001003D02*
X004805Y000960D01*
X004718Y000960D01*
X004675Y001003D01*
X004761Y001090D02*
X004805Y001090D01*
X004848Y001047D01*
X004848Y001003D01*
X004805Y001090D02*
X004848Y001133D01*
X004848Y001177D01*
X004805Y001220D01*
X004718Y001220D01*
X004675Y001177D01*
X004553Y001177D02*
X004553Y001003D01*
X004510Y000960D01*
X004380Y000960D01*
X004380Y001220D01*
X004510Y001220D01*
X004553Y001177D01*
X003866Y001180D02*
X003823Y001223D01*
X003736Y001223D01*
X003693Y001180D01*
X003571Y001180D02*
X003528Y001223D01*
X003398Y001223D01*
X003398Y000963D01*
X003528Y000963D01*
X003571Y001007D01*
X003571Y001180D01*
X003693Y000963D02*
X003866Y001137D01*
X003866Y001180D01*
X003866Y000963D02*
X003693Y000963D01*
X003738Y001674D02*
X003502Y001674D01*
X003502Y002146D02*
X003738Y002146D01*
X002988Y001986D02*
X002988Y001866D01*
X002988Y001926D02*
X002808Y001926D01*
X002868Y001866D01*
X002838Y001765D02*
X002808Y001735D01*
X002808Y001675D01*
X002838Y001645D01*
X002958Y001645D01*
X002988Y001675D01*
X002988Y001735D01*
X002958Y001765D01*
X002902Y001225D02*
X002729Y001225D01*
X002608Y001138D02*
X002608Y000964D01*
X002729Y000964D02*
X002729Y001008D01*
X002902Y001181D01*
X002902Y001225D01*
X002608Y001138D02*
X002521Y001225D01*
X002434Y001138D01*
X002434Y000964D01*
X002434Y001095D02*
X002608Y001095D01*
X002320Y002930D02*
X002180Y003070D01*
X002180Y005690D01*
X004940Y005690D01*
X004940Y002930D01*
X002320Y002930D01*
X002339Y003230D02*
X002341Y003253D01*
X002347Y003276D01*
X002356Y003297D01*
X002369Y003317D01*
X002385Y003334D01*
X002403Y003348D01*
X002423Y003359D01*
X002445Y003367D01*
X002468Y003371D01*
X002492Y003371D01*
X002515Y003367D01*
X002537Y003359D01*
X002557Y003348D01*
X002575Y003334D01*
X002591Y003317D01*
X002604Y003297D01*
X002613Y003276D01*
X002619Y003253D01*
X002621Y003230D01*
X002619Y003207D01*
X002613Y003184D01*
X002604Y003163D01*
X002591Y003143D01*
X002575Y003126D01*
X002557Y003112D01*
X002537Y003101D01*
X002515Y003093D01*
X002492Y003089D01*
X002468Y003089D01*
X002445Y003093D01*
X002423Y003101D01*
X002403Y003112D01*
X002385Y003126D01*
X002369Y003143D01*
X002356Y003163D01*
X002347Y003184D01*
X002341Y003207D01*
X002339Y003230D01*
X003160Y003521D02*
X003220Y003461D01*
X003340Y003461D01*
X003250Y003461D02*
X003250Y003581D01*
X003220Y003581D02*
X003340Y003581D01*
X003220Y003581D02*
X003160Y003521D01*
X003160Y003682D02*
X003160Y003802D01*
X003160Y003742D02*
X003340Y003742D01*
X003340Y003903D02*
X003160Y003903D01*
X003220Y003963D01*
X003160Y004023D01*
X003340Y004023D01*
X003340Y004124D02*
X003340Y004244D01*
X003310Y004345D02*
X003340Y004375D01*
X003340Y004435D01*
X003310Y004465D01*
X003250Y004465D01*
X003250Y004405D01*
X003190Y004345D02*
X003310Y004345D01*
X003190Y004345D02*
X003160Y004375D01*
X003160Y004435D01*
X003190Y004465D01*
X003220Y004566D02*
X003160Y004626D01*
X003220Y004686D01*
X003340Y004686D01*
X003250Y004686D02*
X003250Y004566D01*
X003220Y004566D02*
X003340Y004566D01*
X003340Y004787D02*
X003160Y004907D01*
X003160Y005008D02*
X003340Y005128D01*
X003310Y005229D02*
X003280Y005229D01*
X003250Y005259D01*
X003250Y005319D01*
X003280Y005349D01*
X003310Y005349D01*
X003340Y005319D01*
X003340Y005259D01*
X003310Y005229D01*
X003250Y005259D02*
X003220Y005229D01*
X003190Y005229D01*
X003160Y005259D01*
X003160Y005319D01*
X003190Y005349D01*
X003220Y005349D01*
X003250Y005319D01*
X003160Y005128D02*
X003340Y005008D01*
X003340Y004907D02*
X003160Y004787D01*
X003160Y004244D02*
X003160Y004124D01*
X003340Y004124D01*
X003250Y004124D02*
X003250Y004184D01*
X004509Y006382D02*
X004629Y006382D01*
X004730Y006382D02*
X004850Y006382D01*
X004790Y006382D02*
X004790Y006562D01*
X004730Y006502D01*
X004838Y006674D02*
X004602Y006674D01*
X004509Y006562D02*
X004509Y006382D01*
X004602Y007146D02*
X004838Y007146D01*
X006010Y005270D02*
X005980Y005240D01*
X005980Y005120D01*
X006010Y005090D01*
X006070Y005090D01*
X006100Y005120D01*
X006100Y005240D02*
X006070Y005270D01*
X006010Y005270D01*
X007240Y007990D02*
X007240Y008250D01*
X007370Y008250D01*
X007413Y008207D01*
X007413Y008120D01*
X007370Y008077D01*
X007240Y008077D01*
X007327Y008077D02*
X007413Y007990D01*
X007535Y008033D02*
X007578Y007990D01*
X007665Y007990D01*
X007708Y008033D01*
X007708Y008077D01*
X007665Y008120D01*
X007578Y008120D01*
X007535Y008163D01*
X007535Y008207D01*
X007578Y008250D01*
X007665Y008250D01*
X007708Y008207D01*
X007829Y008250D02*
X008003Y008250D01*
X007916Y008250D02*
X007916Y007990D01*
X005555Y002362D02*
X005555Y002182D01*
X005495Y002182D02*
X005615Y002182D01*
X005495Y002302D02*
X005555Y002362D01*
X005394Y002362D02*
X005394Y002332D01*
X005334Y002272D01*
X005334Y002182D01*
X005334Y002272D02*
X005274Y002332D01*
X005274Y002362D01*
D11*
X005940Y002725D02*
X005973Y002692D01*
X005940Y002725D02*
X005940Y002792D01*
X005973Y002826D01*
X006007Y002826D01*
X006140Y002692D01*
X006140Y002826D01*
X006107Y002913D02*
X005973Y003047D01*
X006107Y003047D01*
X006140Y003013D01*
X006140Y002946D01*
X006107Y002913D01*
X005973Y002913D01*
X005940Y002946D01*
X005940Y003013D01*
X005973Y003047D01*
X006007Y003134D02*
X005940Y003201D01*
X006140Y003201D01*
X006140Y003134D02*
X006140Y003268D01*
X006107Y003355D02*
X006140Y003388D01*
X006140Y003455D01*
X006107Y003489D01*
X006073Y003489D01*
X006040Y003455D01*
X006040Y003422D01*
X006040Y003455D02*
X006007Y003489D01*
X005973Y003489D01*
X005940Y003455D01*
X005940Y003388D01*
X005973Y003355D01*
X005973Y003576D02*
X005940Y003609D01*
X005940Y003676D01*
X005973Y003709D01*
X006107Y003576D01*
X006140Y003609D01*
X006140Y003676D01*
X006107Y003709D01*
X005973Y003709D01*
X006007Y003797D02*
X005940Y003864D01*
X006140Y003864D01*
X006140Y003930D02*
X006140Y003797D01*
X006107Y004018D02*
X005973Y004018D01*
X005940Y004051D01*
X005940Y004118D01*
X005973Y004151D01*
X006107Y004018D01*
X006140Y004051D01*
X006140Y004118D01*
X006107Y004151D01*
X005973Y004151D01*
X005940Y004239D02*
X005940Y004372D01*
X005973Y004372D01*
X006107Y004239D01*
X006140Y004239D01*
X006107Y003576D02*
X005973Y003576D01*
X005757Y005656D02*
X005557Y005656D01*
X005557Y005877D02*
X005757Y005877D01*
X005757Y006010D01*
X005757Y006098D02*
X005757Y006198D01*
X005723Y006231D01*
X005590Y006231D01*
X005557Y006198D01*
X005557Y006098D01*
X005757Y006098D01*
X005657Y005943D02*
X005657Y005877D01*
X005757Y005789D02*
X005757Y005656D01*
X005557Y005877D02*
X005557Y006010D01*
X005623Y006319D02*
X005557Y006385D01*
X005757Y006385D01*
X005757Y006319D02*
X005757Y006452D01*
D12*
X005928Y006032D02*
X006067Y005824D01*
X006248Y005824D01*
X006080Y005859D02*
X006208Y006027D01*
X006067Y005824D02*
X005881Y005824D01*
X005729Y002026D02*
X005729Y001514D01*
X004311Y001514D02*
X004311Y002026D01*
M02*
