G75*
G70*
%OFA0B0*%
%FSLAX24Y24*%
%IPPOS*%
%LPD*%
%AMOC8*
5,1,8,0,0,1.08239X$1,22.5*
%
%ADD10C,0.0060*%
%ADD11C,0.0080*%
%ADD12C,0.0040*%
D10*
X001280Y001563D02*
X001324Y001520D01*
X001454Y001520D01*
X001410Y001607D02*
X001454Y001650D01*
X001410Y001693D01*
X001280Y001693D01*
X001324Y001607D02*
X001410Y001607D01*
X001324Y001607D02*
X001280Y001563D01*
X001575Y001563D02*
X001575Y001693D01*
X001575Y001563D02*
X001618Y001520D01*
X001662Y001563D01*
X001705Y001520D01*
X001748Y001563D01*
X001748Y001693D01*
X001870Y001650D02*
X001870Y001607D01*
X002043Y001607D01*
X002043Y001650D02*
X002000Y001693D01*
X001913Y001693D01*
X001870Y001650D01*
X001913Y001520D02*
X002000Y001520D01*
X002043Y001563D01*
X002043Y001650D01*
X002159Y001693D02*
X002202Y001693D01*
X002289Y001607D01*
X002289Y001693D02*
X002289Y001520D01*
X002410Y001520D02*
X002540Y001520D01*
X002583Y001563D01*
X002583Y001650D01*
X002540Y001693D01*
X002410Y001693D01*
X002410Y001780D02*
X002410Y001520D01*
X002704Y001520D02*
X002704Y001650D01*
X002748Y001693D01*
X002878Y001693D01*
X002878Y001520D01*
X002999Y001520D02*
X002999Y001693D01*
X003086Y001780D01*
X003173Y001693D01*
X003173Y001520D01*
X003173Y001650D02*
X002999Y001650D01*
X003155Y001893D02*
X003155Y002153D01*
X003025Y002153D01*
X002982Y002110D01*
X002982Y002023D01*
X003025Y001980D01*
X003155Y001980D01*
X003276Y001980D02*
X003276Y002110D01*
X003320Y002153D01*
X003363Y002110D01*
X003363Y001980D01*
X003450Y001980D02*
X003450Y002153D01*
X003406Y002153D01*
X003363Y002110D01*
X003571Y002110D02*
X003571Y002023D01*
X003614Y001980D01*
X003701Y001980D01*
X003744Y002023D01*
X003744Y002110D01*
X003701Y002153D01*
X003614Y002153D01*
X003571Y002110D01*
X003866Y002023D02*
X003909Y001980D01*
X003996Y001980D01*
X004039Y002023D01*
X004039Y002197D01*
X003996Y002240D01*
X003909Y002240D01*
X003866Y002197D01*
X003894Y002530D02*
X003937Y002573D01*
X003937Y002747D01*
X003894Y002703D02*
X003981Y002703D01*
X004102Y002703D02*
X004275Y002530D01*
X004397Y002530D02*
X004570Y002530D01*
X004570Y002790D01*
X004397Y002790D01*
X004275Y002703D02*
X004102Y002530D01*
X003784Y002530D02*
X003784Y002703D01*
X003784Y002617D02*
X003698Y002703D01*
X003654Y002703D01*
X003495Y002703D02*
X003409Y002703D01*
X003365Y002660D01*
X003365Y002530D01*
X003495Y002530D01*
X003539Y002573D01*
X003495Y002617D01*
X003365Y002617D01*
X003244Y002573D02*
X003201Y002530D01*
X003114Y002530D01*
X003071Y002573D01*
X002949Y002573D02*
X002949Y002660D01*
X002906Y002703D01*
X002819Y002703D01*
X002776Y002660D01*
X002776Y002573D01*
X002819Y002530D01*
X002906Y002530D01*
X002949Y002573D01*
X003071Y002747D02*
X003114Y002790D01*
X003201Y002790D01*
X003244Y002747D01*
X003244Y002573D01*
X002817Y002153D02*
X002730Y002153D01*
X002687Y002110D01*
X002687Y001980D01*
X002817Y001980D01*
X002860Y002023D01*
X002817Y002067D01*
X002687Y002067D01*
X002566Y002153D02*
X002479Y002153D01*
X002522Y002197D02*
X002522Y002023D01*
X002479Y001980D01*
X002369Y001980D02*
X002283Y001980D01*
X002326Y001980D02*
X002326Y002153D01*
X002369Y002153D01*
X002326Y002240D02*
X002326Y002284D01*
X002173Y002240D02*
X002173Y001980D01*
X002043Y001980D01*
X001999Y002023D01*
X001999Y002110D01*
X002043Y002153D01*
X002173Y002153D01*
X001878Y002240D02*
X001835Y002240D01*
X001835Y001980D01*
X001878Y001980D02*
X001792Y001980D01*
X001682Y002023D02*
X001682Y002110D01*
X001638Y002153D01*
X001552Y002153D01*
X001508Y002110D01*
X001508Y002067D01*
X001682Y002067D01*
X001682Y002023D02*
X001638Y001980D01*
X001552Y001980D01*
X001387Y001980D02*
X001300Y002067D01*
X001300Y002153D01*
X001387Y002240D01*
X001352Y002530D02*
X001525Y002530D01*
X001352Y002703D01*
X001352Y002747D01*
X001395Y002790D01*
X001482Y002790D01*
X001525Y002747D01*
X001646Y002703D02*
X001733Y002530D01*
X001820Y002703D01*
X002236Y002660D02*
X002236Y002617D01*
X002409Y002617D01*
X002409Y002660D02*
X002366Y002703D01*
X002279Y002703D01*
X002236Y002660D01*
X002279Y002530D02*
X002366Y002530D01*
X002409Y002573D01*
X002409Y002660D01*
X002525Y002703D02*
X002568Y002703D01*
X002655Y002617D01*
X002655Y002703D02*
X002655Y002530D01*
X003588Y001650D02*
X003588Y001520D01*
X003588Y001650D02*
X003632Y001693D01*
X003762Y001693D01*
X003762Y001520D01*
X003872Y001520D02*
X003958Y001520D01*
X003915Y001520D02*
X003915Y001693D01*
X003958Y001693D01*
X003915Y001780D02*
X003915Y001824D01*
X004068Y001693D02*
X004155Y001693D01*
X004111Y001737D02*
X004111Y001563D01*
X004068Y001520D01*
X004276Y001563D02*
X004319Y001607D01*
X004406Y001607D01*
X004449Y001650D01*
X004406Y001693D01*
X004276Y001693D01*
X004276Y001563D02*
X004319Y001520D01*
X004449Y001520D01*
X004571Y001520D02*
X004571Y001693D01*
X004571Y001520D02*
X004701Y001520D01*
X004744Y001563D01*
X004744Y001693D01*
X004865Y001737D02*
X004909Y001780D01*
X005039Y001780D01*
X005039Y001520D01*
X004909Y001520D01*
X004865Y001563D01*
X004865Y001737D01*
X004923Y001980D02*
X004923Y002153D01*
X004793Y002153D01*
X004750Y002110D01*
X004750Y001980D01*
X004628Y002023D02*
X004585Y001980D01*
X004498Y001980D01*
X004455Y002023D01*
X004455Y002110D01*
X004498Y002153D01*
X004585Y002153D01*
X004628Y002110D01*
X004628Y002023D01*
X005033Y001980D02*
X005119Y001980D01*
X005076Y001980D02*
X005076Y002153D01*
X005119Y002153D01*
X005076Y002240D02*
X005076Y002284D01*
X005241Y002153D02*
X005241Y001980D01*
X005371Y001980D01*
X005414Y002023D01*
X005414Y002153D01*
X005535Y002153D02*
X005665Y002153D01*
X005709Y002110D01*
X005709Y002023D01*
X005665Y001980D01*
X005535Y001980D01*
X005535Y002240D01*
X005824Y002153D02*
X005868Y002153D01*
X005954Y002067D01*
X005954Y002153D02*
X005954Y001980D01*
X006075Y001980D02*
X006075Y002153D01*
X006162Y002240D01*
X006249Y002153D01*
X006249Y001980D01*
X006359Y001980D02*
X006445Y002067D01*
X006445Y002153D01*
X006359Y002240D01*
X006249Y002110D02*
X006075Y002110D01*
X006070Y001780D02*
X006070Y001520D01*
X005940Y001520D01*
X005897Y001563D01*
X005897Y001650D01*
X005940Y001693D01*
X006070Y001693D01*
X005775Y001693D02*
X005775Y001563D01*
X005732Y001520D01*
X005602Y001520D01*
X005602Y001477D02*
X005645Y001433D01*
X005689Y001433D01*
X005602Y001477D02*
X005602Y001693D01*
X005481Y001693D02*
X005481Y001650D01*
X005437Y001650D01*
X005437Y001693D01*
X005481Y001693D01*
X005481Y001563D02*
X005437Y001563D01*
X005437Y001520D01*
X005481Y001520D01*
X005481Y001563D01*
X004570Y002660D02*
X004483Y002660D01*
X003959Y004395D02*
X003959Y004655D01*
X003829Y004655D01*
X003785Y004612D01*
X003785Y004525D01*
X003829Y004482D01*
X003959Y004482D01*
X003872Y004482D02*
X003785Y004395D01*
X003664Y004438D02*
X003621Y004395D01*
X003534Y004395D01*
X003491Y004438D01*
X003491Y004525D01*
X003578Y004525D01*
X003664Y004612D02*
X003664Y004438D01*
X003664Y004612D02*
X003621Y004655D01*
X003534Y004655D01*
X003491Y004612D01*
X003370Y004568D02*
X003283Y004655D01*
X003283Y004395D01*
X003370Y004395D02*
X003196Y004395D01*
X003228Y007120D02*
X003185Y007163D01*
X003185Y007250D01*
X003228Y007293D01*
X003228Y007415D02*
X003185Y007458D01*
X003185Y007545D01*
X003228Y007588D01*
X003315Y007588D01*
X003358Y007545D01*
X003358Y007501D01*
X003315Y007415D01*
X003445Y007415D01*
X003445Y007588D01*
X003534Y007458D02*
X003534Y007222D01*
X003445Y007250D02*
X003445Y007163D01*
X003402Y007120D01*
X003228Y007120D01*
X003106Y007252D02*
X003106Y007488D01*
X003402Y007293D02*
X003445Y007250D01*
X004006Y007222D02*
X004006Y007458D01*
X004125Y007555D02*
X004385Y007555D01*
X004255Y007425D01*
X004255Y007598D01*
X004168Y007303D02*
X004125Y007260D01*
X004125Y007173D01*
X004168Y007130D01*
X004342Y007130D01*
X004385Y007173D01*
X004385Y007260D01*
X004342Y007303D01*
X002634Y007252D02*
X002634Y007488D01*
D11*
X001550Y005390D02*
X001550Y004090D01*
X004130Y004090D01*
X004130Y005390D01*
X001550Y005390D01*
X006583Y005105D02*
X006583Y005052D01*
X006583Y005105D02*
X006637Y005158D01*
X006904Y005158D01*
X006904Y004945D02*
X006743Y004945D01*
X006690Y004998D01*
X006690Y005158D01*
X006690Y005313D02*
X007010Y005527D01*
X006850Y005681D02*
X006904Y005735D01*
X006904Y005895D01*
X006583Y005895D01*
X006690Y005895D02*
X006690Y005735D01*
X006743Y005681D01*
X006850Y005681D01*
X006850Y006050D02*
X006904Y006157D01*
X006904Y006210D01*
X006850Y006263D01*
X006743Y006263D01*
X006690Y006210D01*
X006690Y006103D01*
X006743Y006050D01*
X006850Y006050D02*
X007010Y006050D01*
X007010Y006263D01*
X007010Y006418D02*
X007010Y006578D01*
X006957Y006632D01*
X006904Y006632D01*
X006850Y006578D01*
X006850Y006418D01*
X006690Y006418D02*
X006690Y006578D01*
X006743Y006632D01*
X006797Y006632D01*
X006850Y006578D01*
X006850Y006786D02*
X006850Y007000D01*
X006743Y007155D02*
X006690Y007155D01*
X006690Y007368D01*
X006690Y007523D02*
X006904Y007523D01*
X006904Y007630D02*
X006904Y007683D01*
X006904Y007630D02*
X006797Y007523D01*
X006957Y007368D02*
X006743Y007155D01*
X006690Y007000D02*
X007010Y007000D01*
X007010Y007155D02*
X007010Y007368D01*
X006957Y007368D01*
X007010Y006786D02*
X006690Y006786D01*
X006690Y006418D02*
X007010Y006418D01*
X006690Y004806D02*
X006690Y004699D01*
X006690Y004753D02*
X007010Y004753D01*
X007010Y004699D01*
X006743Y004569D02*
X006690Y004569D01*
X006690Y004515D01*
X006743Y004515D01*
X006743Y004569D01*
X006690Y004376D02*
X006743Y004323D01*
X006957Y004323D01*
X006904Y004270D02*
X006904Y004376D01*
X006904Y004077D02*
X006690Y004077D01*
X006690Y004024D02*
X006690Y004131D01*
X006743Y003869D02*
X006850Y003869D01*
X006904Y003816D01*
X006904Y003656D01*
X007010Y003656D02*
X006690Y003656D01*
X006690Y003816D01*
X006743Y003869D01*
X006904Y004024D02*
X006904Y004077D01*
X007010Y004077D02*
X007064Y004077D01*
X007010Y003501D02*
X006690Y003287D01*
X007010Y003133D02*
X006690Y002919D01*
X006690Y002788D02*
X006690Y002735D01*
X006743Y002735D01*
X006743Y002788D01*
X006690Y002788D01*
X006850Y002788D02*
X006850Y002735D01*
X006904Y002735D01*
X006904Y002788D01*
X006850Y002788D01*
X006850Y002580D02*
X006743Y002580D01*
X006690Y002527D01*
X006690Y002367D01*
X006583Y002367D02*
X006904Y002367D01*
X006904Y002527D01*
X006850Y002580D01*
X006904Y002228D02*
X006904Y002121D01*
X006957Y002174D02*
X006743Y002174D01*
X006690Y002228D01*
X006690Y001982D02*
X006743Y001929D01*
X006957Y001929D01*
X006904Y001876D02*
X006904Y001982D01*
X006850Y001721D02*
X006690Y001721D01*
X006850Y001721D02*
X006904Y001667D01*
X006904Y001561D01*
X006850Y001507D01*
X007010Y001507D02*
X006690Y001507D01*
D12*
X004640Y006930D02*
X004640Y007063D01*
X004540Y007030D02*
X004740Y007030D01*
X004640Y006930D01*
X004573Y007151D02*
X004540Y007151D01*
X004540Y007184D01*
X004573Y007184D01*
X004573Y007151D01*
X004573Y007261D02*
X004540Y007261D01*
X004573Y007261D02*
X004707Y007395D01*
X004740Y007395D01*
X004740Y007261D01*
X004673Y007482D02*
X004573Y007482D01*
X004540Y007516D01*
X004540Y007616D01*
X004673Y007616D01*
X004640Y007703D02*
X004640Y007770D01*
X004707Y007737D02*
X004540Y007737D01*
X004707Y007737D02*
X004740Y007770D01*
X002500Y007790D02*
X002467Y007757D01*
X002300Y007757D01*
X002400Y007723D02*
X002400Y007790D01*
X002433Y007636D02*
X002300Y007636D01*
X002300Y007536D01*
X002333Y007502D01*
X002433Y007502D01*
X002467Y007415D02*
X002333Y007281D01*
X002300Y007281D01*
X002300Y007204D02*
X002300Y007171D01*
X002333Y007171D01*
X002333Y007204D01*
X002300Y007204D01*
X002300Y007050D02*
X002500Y007050D01*
X002400Y006950D01*
X002400Y007083D01*
X002500Y007281D02*
X002500Y007415D01*
X002467Y007415D01*
M02*
