%
M48
M72
T01C0.0150
T02C0.0400
%
T01
X1596Y2288
X2087Y1087
X3877Y3369
X4019Y4133
X2934Y4291
X2337Y4506
X2927Y5004
X1214Y4868
X1767Y7010
X1127Y7898
X3232Y7374
X4922Y8179
X4665Y5432
X6531Y5108
X5140Y2865
T02
X620Y610
X620Y1610
X620Y2610
X620Y3610
X620Y4610
X620Y5610
X620Y6610
X620Y7610
X620Y8610
X1620Y8610
X2620Y8610
X3620Y8610
X4620Y8610
X5620Y8610
X6620Y8610
X7620Y8610
X7620Y7610
X7620Y6610
X7620Y5610
X7620Y4610
X7620Y3610
X7620Y2610
X7620Y1610
X7620Y610
X6620Y610
X5620Y610
X4620Y610
X3620Y610
X2620Y610
X1620Y610
M30
