G75*
G70*
%OFA0B0*%
%FSLAX24Y24*%
%IPPOS*%
%LPD*%
%AMOC8*
5,1,8,0,0,1.08239X$1,22.5*
%
%ADD10C,0.0600*%
%ADD11C,0.0080*%
%ADD12C,0.0270*%
D10*
X000632Y001226D03*
X000632Y002226D03*
X000632Y003226D03*
X000632Y004226D03*
X000632Y005226D03*
X000632Y006226D03*
X000632Y007226D03*
X000632Y008226D03*
X000632Y009226D03*
X001632Y009226D03*
X002632Y009226D03*
X003632Y009226D03*
X004632Y009226D03*
X005632Y009226D03*
X006632Y009226D03*
X007632Y009226D03*
X007632Y008226D03*
X007632Y007226D03*
X007632Y006226D03*
X007632Y005226D03*
X007632Y004226D03*
X007632Y003226D03*
X007632Y002226D03*
X007632Y001226D03*
X006632Y001226D03*
X005632Y001226D03*
X004632Y001226D03*
X003632Y001226D03*
X002632Y001226D03*
X001632Y001226D03*
D11*
X001632Y001866D01*
X002732Y002966D01*
X004572Y002966D01*
X005012Y003406D01*
X004612Y004106D02*
X002532Y004106D01*
X002172Y003746D01*
X001152Y003746D01*
X000632Y003226D01*
X001092Y002806D02*
X002332Y002806D01*
X002652Y003126D01*
X004352Y003126D01*
X007052Y005826D01*
X006542Y006996D02*
X006772Y007226D01*
X007632Y007226D01*
X007492Y008086D02*
X006132Y008086D01*
X006042Y008636D02*
X006212Y008806D01*
X006232Y008826D01*
X006632Y009226D01*
X006042Y008636D02*
X004102Y008636D01*
X003712Y008246D01*
X003712Y007086D01*
X003452Y006906D02*
X003452Y008216D01*
X002812Y008806D02*
X005192Y008806D01*
X005612Y009226D01*
X005632Y009226D01*
X004642Y008206D02*
X005417Y007431D01*
X005417Y006731D01*
X004792Y006106D01*
X004512Y006206D02*
X004512Y005996D01*
X004322Y005806D01*
X003682Y005806D01*
X003452Y005806D01*
X002032Y007226D01*
X002032Y008626D01*
X002632Y009226D01*
X002812Y008806D02*
X002372Y008366D01*
X002022Y007316D02*
X001932Y007226D01*
X000632Y007226D01*
X001052Y006726D02*
X001672Y006726D01*
X001932Y007226D02*
X002032Y007226D01*
X002652Y006226D02*
X002732Y006146D01*
X002652Y006226D02*
X000632Y006226D01*
X000632Y005226D02*
X002592Y005226D01*
X002752Y005386D01*
X002462Y005656D02*
X003162Y005656D01*
X003622Y005196D01*
X004632Y005196D01*
X004732Y005096D01*
X004732Y004226D01*
X004612Y004106D01*
X004472Y004366D02*
X002412Y004366D01*
X002352Y004306D01*
X002352Y004686D02*
X004212Y004686D01*
X004212Y006146D02*
X003452Y006906D01*
X004512Y006206D02*
X005072Y006766D01*
X002872Y004956D02*
X002242Y004956D01*
X001412Y004126D01*
X001692Y003486D02*
X002292Y003486D01*
X002522Y003716D01*
X002872Y003716D02*
X002382Y003226D01*
X001932Y003226D01*
X002852Y002706D02*
X004152Y002706D01*
X005632Y001226D01*
X007492Y008086D02*
X007632Y008226D01*
D12*
X006542Y006996D03*
X006132Y008086D03*
X005072Y006766D03*
X004792Y006106D03*
X004212Y006146D03*
X003682Y005806D03*
X002872Y004956D03*
X002752Y005386D03*
X002462Y005656D03*
X002732Y006146D03*
X003712Y007086D03*
X003452Y008216D03*
X002372Y008366D03*
X001672Y006726D03*
X001052Y006726D03*
X002352Y004686D03*
X002352Y004306D03*
X002522Y003716D03*
X002872Y003716D03*
X002852Y002706D03*
X001932Y003226D03*
X001692Y003486D03*
X001412Y004126D03*
X001092Y002806D03*
X004212Y004686D03*
X004472Y004366D03*
X005012Y003406D03*
X007052Y005826D03*
X004642Y008206D03*
M02*
