%
M48
M72
T01C0.0150
T02C0.0400
%
T01
X1092Y2806
X1692Y3486
X1932Y3226
X2522Y3716
X2872Y3716
X2352Y4306
X2352Y4686
X2872Y4956
X2752Y5386
X2462Y5656
X2732Y6146
X3682Y5806
X4212Y6146
X4792Y6106
X5072Y6766
X6132Y8086
X6542Y6996
X7052Y5826
X5012Y3406
X4472Y4366
X4212Y4686
X2852Y2706
X1412Y4126
X1672Y6726
X1052Y6726
X2372Y8366
X3452Y8216
X3712Y7086
X4642Y8206
T02
X632Y1226
X632Y2226
X632Y3226
X632Y4226
X632Y5226
X632Y6226
X632Y7226
X632Y8226
X632Y9226
X1632Y9226
X2632Y9226
X3632Y9226
X4632Y9226
X5632Y9226
X6632Y9226
X7632Y9226
X7632Y8226
X7632Y7226
X7632Y6226
X7632Y5226
X7632Y4226
X7632Y3226
X7632Y2226
X7632Y1226
X6632Y1226
X5632Y1226
X4632Y1226
X3632Y1226
X2632Y1226
X1632Y1226
M30
