G75*
G70*
%OFA0B0*%
%FSLAX24Y24*%
%IPPOS*%
%LPD*%
%AMOC8*
5,1,8,0,0,1.08239X$1,22.5*
%
%ADD10C,0.0010*%
%ADD11C,0.0050*%
%ADD12C,0.0060*%
%ADD13C,0.0080*%
D10*
X000232Y000826D02*
X008032Y000826D01*
X008032Y009626D01*
X000232Y009626D01*
X000232Y000826D01*
D11*
X003551Y007791D02*
X003641Y007791D01*
X003686Y007836D01*
X003686Y007927D01*
X003641Y007972D01*
X003551Y007972D01*
X003506Y007927D01*
X003506Y007881D01*
X003686Y007881D01*
X003797Y007972D02*
X003842Y007972D01*
X003932Y007881D01*
X003932Y007791D02*
X003932Y007972D01*
X004046Y007927D02*
X004046Y007836D01*
X004091Y007791D01*
X004181Y007791D01*
X004226Y007836D01*
X004226Y007927D01*
X004181Y007972D01*
X004091Y007972D01*
X004046Y007927D01*
X004341Y008017D02*
X004386Y008062D01*
X004476Y008062D01*
X004521Y008017D01*
X004521Y007836D01*
X004476Y007791D01*
X004386Y007791D01*
X004341Y007836D01*
X004635Y007791D02*
X004771Y007791D01*
X004816Y007836D01*
X004771Y007881D01*
X004635Y007881D01*
X004635Y007927D02*
X004635Y007791D01*
X004635Y007927D02*
X004681Y007972D01*
X004771Y007972D01*
X004926Y007972D02*
X004971Y007972D01*
X005061Y007881D01*
X005061Y007791D02*
X005061Y007972D01*
X005167Y007972D02*
X005258Y007972D01*
X005213Y008017D02*
X005213Y007836D01*
X005167Y007791D01*
X005372Y007791D02*
X005552Y007972D01*
X005372Y007972D02*
X005552Y007791D01*
X005667Y007791D02*
X005847Y007791D01*
X005847Y008062D01*
X005667Y008062D01*
X005757Y007927D02*
X005847Y007927D01*
D12*
X005591Y005837D02*
X005460Y005837D01*
X005417Y005793D01*
X005417Y005620D01*
X005460Y005576D01*
X005591Y005576D01*
X005591Y005837D01*
X005296Y005750D02*
X005296Y005620D01*
X005253Y005576D01*
X005122Y005576D01*
X005122Y005750D01*
X005001Y005707D02*
X004958Y005750D01*
X004828Y005750D01*
X004871Y005663D02*
X004958Y005663D01*
X005001Y005707D01*
X005001Y005576D02*
X004871Y005576D01*
X004828Y005620D01*
X004871Y005663D01*
X004707Y005750D02*
X004620Y005750D01*
X004663Y005793D02*
X004663Y005620D01*
X004620Y005576D01*
X004510Y005576D02*
X004423Y005576D01*
X004467Y005576D02*
X004467Y005750D01*
X004510Y005750D01*
X004467Y005837D02*
X004467Y005880D01*
X004314Y005750D02*
X004184Y005750D01*
X004140Y005707D01*
X004140Y005576D01*
X004314Y005576D02*
X004314Y005750D01*
X004288Y005270D02*
X004288Y005140D01*
X004244Y005096D01*
X004201Y005140D01*
X004158Y005096D01*
X004114Y005140D01*
X004114Y005270D01*
X003993Y005227D02*
X003950Y005270D01*
X003820Y005270D01*
X003863Y005183D02*
X003950Y005183D01*
X003993Y005227D01*
X003993Y005096D02*
X003863Y005096D01*
X003820Y005140D01*
X003863Y005183D01*
X004409Y005183D02*
X004582Y005183D01*
X004582Y005140D02*
X004582Y005227D01*
X004539Y005270D01*
X004452Y005270D01*
X004409Y005227D01*
X004409Y005183D01*
X004452Y005096D02*
X004539Y005096D01*
X004582Y005140D01*
X004698Y005270D02*
X004741Y005270D01*
X004828Y005183D01*
X004828Y005096D02*
X004828Y005270D01*
X004949Y005270D02*
X005079Y005270D01*
X005123Y005227D01*
X005123Y005140D01*
X005079Y005096D01*
X004949Y005096D01*
X004949Y005357D01*
X005244Y005227D02*
X005244Y005096D01*
X005244Y005227D02*
X005287Y005270D01*
X005417Y005270D01*
X005417Y005096D01*
X005538Y005096D02*
X005538Y005270D01*
X005625Y005357D01*
X005712Y005270D01*
X005712Y005096D01*
X005712Y005227D02*
X005538Y005227D01*
X005989Y005576D02*
X006033Y005576D01*
X006033Y005620D01*
X005989Y005620D01*
X005989Y005576D01*
X005989Y005707D02*
X006033Y005707D01*
X006033Y005750D01*
X005989Y005750D01*
X005989Y005707D01*
X006154Y005750D02*
X006154Y005533D01*
X006197Y005490D01*
X006240Y005490D01*
X006284Y005576D02*
X006154Y005576D01*
X006284Y005576D02*
X006327Y005620D01*
X006327Y005750D01*
X006448Y005707D02*
X006448Y005620D01*
X006492Y005576D01*
X006622Y005576D01*
X006622Y005837D01*
X006622Y005750D02*
X006492Y005750D01*
X006448Y005707D01*
D13*
X004612Y002580D02*
X004612Y002527D01*
X004612Y002420D02*
X004612Y002206D01*
X004665Y002206D02*
X004558Y002206D01*
X004366Y002260D02*
X004313Y002206D01*
X004366Y002260D02*
X004366Y002473D01*
X004313Y002420D02*
X004420Y002420D01*
X004612Y002420D02*
X004665Y002420D01*
X004820Y002367D02*
X004820Y002260D01*
X004873Y002206D01*
X005033Y002206D01*
X005033Y002527D01*
X005033Y002420D02*
X004873Y002420D01*
X004820Y002367D01*
X005188Y002527D02*
X005402Y002206D01*
X005557Y002527D02*
X005770Y002206D01*
X005901Y002206D02*
X005901Y002260D01*
X005954Y002260D01*
X005954Y002206D01*
X005901Y002206D01*
X005901Y002367D02*
X005954Y002367D01*
X005954Y002420D01*
X005901Y002420D01*
X005901Y002367D01*
X006109Y002367D02*
X006109Y002260D01*
X006162Y002206D01*
X006322Y002206D01*
X006322Y002100D02*
X006322Y002420D01*
X006162Y002420D01*
X006109Y002367D01*
X006461Y002420D02*
X006568Y002420D01*
X006515Y002473D02*
X006515Y002260D01*
X006461Y002206D01*
X006707Y002206D02*
X006760Y002260D01*
X006760Y002473D01*
X006707Y002420D02*
X006814Y002420D01*
X006968Y002367D02*
X006968Y002206D01*
X006968Y002367D02*
X007022Y002420D01*
X007128Y002420D01*
X007182Y002367D01*
X007182Y002527D02*
X007182Y002206D01*
X004174Y002206D02*
X004121Y002206D01*
X004121Y002260D01*
X004174Y002260D01*
X004174Y002206D01*
X003990Y002206D02*
X003883Y002206D01*
X003937Y002206D02*
X003937Y002527D01*
X003990Y002527D01*
X003744Y002420D02*
X003744Y002260D01*
X003691Y002206D01*
X003531Y002206D01*
X003531Y002153D02*
X003584Y002100D01*
X003638Y002100D01*
X003531Y002153D02*
X003531Y002420D01*
X003376Y002206D02*
X003163Y002527D01*
X003008Y002367D02*
X003008Y002260D01*
X002954Y002206D01*
X002794Y002206D01*
X002794Y002100D02*
X002794Y002420D01*
X002954Y002420D01*
X003008Y002367D01*
X002640Y002367D02*
X002533Y002420D01*
X002479Y002420D01*
X002426Y002367D01*
X002426Y002260D01*
X002479Y002206D01*
X002586Y002206D01*
X002640Y002260D01*
X002640Y002367D02*
X002640Y002527D01*
X002426Y002527D01*
X002271Y002527D02*
X002111Y002527D01*
X002058Y002473D01*
X002058Y002420D01*
X002111Y002367D01*
X002271Y002367D01*
X002271Y002527D02*
X002271Y002206D01*
X002111Y002206D01*
X002058Y002260D01*
X002058Y002313D01*
X002111Y002367D01*
X001903Y002367D02*
X001689Y002367D01*
X001689Y002527D02*
X001689Y002206D01*
X001535Y002206D02*
X001535Y002260D01*
X001321Y002473D01*
X001321Y002527D01*
X001535Y002527D01*
X001535Y002206D02*
X001321Y002206D01*
X001166Y002206D02*
X001166Y002420D01*
X001060Y002420D02*
X001166Y002313D01*
X001060Y002420D02*
X001006Y002420D01*
X001903Y002527D02*
X001903Y002206D01*
M02*
