G75*
G70*
%OFA0B0*%
%FSLAX24Y24*%
%IPPOS*%
%LPD*%
%AMOC8*
5,1,8,0,0,1.08239X$1,22.5*
%
%ADD10C,0.0010*%
%ADD11C,0.0060*%
%ADD12C,0.0080*%
D10*
X000232Y000826D02*
X008032Y000826D01*
X008032Y009626D01*
X000232Y009626D01*
X000232Y000826D01*
D11*
X003863Y005096D02*
X003820Y005140D01*
X003863Y005183D01*
X003950Y005183D01*
X003993Y005227D01*
X003950Y005270D01*
X003820Y005270D01*
X003863Y005096D02*
X003993Y005096D01*
X004114Y005140D02*
X004114Y005270D01*
X004114Y005140D02*
X004158Y005096D01*
X004201Y005140D01*
X004244Y005096D01*
X004288Y005140D01*
X004288Y005270D01*
X004409Y005227D02*
X004409Y005183D01*
X004582Y005183D01*
X004582Y005140D02*
X004582Y005227D01*
X004539Y005270D01*
X004452Y005270D01*
X004409Y005227D01*
X004452Y005096D02*
X004539Y005096D01*
X004582Y005140D01*
X004698Y005270D02*
X004741Y005270D01*
X004828Y005183D01*
X004828Y005096D02*
X004828Y005270D01*
X004949Y005270D02*
X005079Y005270D01*
X005123Y005227D01*
X005123Y005140D01*
X005079Y005096D01*
X004949Y005096D01*
X004949Y005357D01*
X005001Y005576D02*
X004871Y005576D01*
X004828Y005620D01*
X004871Y005663D01*
X004958Y005663D01*
X005001Y005707D01*
X004958Y005750D01*
X004828Y005750D01*
X004707Y005750D02*
X004620Y005750D01*
X004663Y005793D02*
X004663Y005620D01*
X004620Y005576D01*
X004510Y005576D02*
X004423Y005576D01*
X004467Y005576D02*
X004467Y005750D01*
X004510Y005750D01*
X004467Y005837D02*
X004467Y005880D01*
X004314Y005750D02*
X004184Y005750D01*
X004140Y005707D01*
X004140Y005576D01*
X004314Y005576D02*
X004314Y005750D01*
X005122Y005750D02*
X005122Y005576D01*
X005253Y005576D01*
X005296Y005620D01*
X005296Y005750D01*
X005417Y005793D02*
X005417Y005620D01*
X005460Y005576D01*
X005591Y005576D01*
X005591Y005837D01*
X005460Y005837D01*
X005417Y005793D01*
X005625Y005357D02*
X005538Y005270D01*
X005538Y005096D01*
X005417Y005096D02*
X005417Y005270D01*
X005287Y005270D01*
X005244Y005227D01*
X005244Y005096D01*
X005538Y005227D02*
X005712Y005227D01*
X005712Y005270D02*
X005712Y005096D01*
X005712Y005270D02*
X005625Y005357D01*
X005989Y005576D02*
X006033Y005576D01*
X006033Y005620D01*
X005989Y005620D01*
X005989Y005576D01*
X005989Y005707D02*
X006033Y005707D01*
X006033Y005750D01*
X005989Y005750D01*
X005989Y005707D01*
X006154Y005750D02*
X006154Y005533D01*
X006197Y005490D01*
X006240Y005490D01*
X006284Y005576D02*
X006154Y005576D01*
X006284Y005576D02*
X006327Y005620D01*
X006327Y005750D01*
X006448Y005707D02*
X006448Y005620D01*
X006492Y005576D01*
X006622Y005576D01*
X006622Y005837D01*
X006622Y005750D02*
X006492Y005750D01*
X006448Y005707D01*
X006348Y007536D02*
X006258Y007536D01*
X006258Y007626D01*
X006288Y007657D01*
X006348Y007657D01*
X006348Y007596D02*
X006258Y007596D01*
X006348Y007596D02*
X006378Y007566D01*
X006348Y007536D01*
X006472Y007657D02*
X006502Y007657D01*
X006563Y007596D01*
X006563Y007536D02*
X006563Y007657D01*
X006650Y007657D02*
X006710Y007657D01*
X006680Y007687D02*
X006680Y007566D01*
X006650Y007536D01*
X006811Y007536D02*
X006931Y007657D01*
X006811Y007657D02*
X006931Y007536D01*
X007032Y007536D02*
X007152Y007536D01*
X007152Y007717D01*
X007032Y007717D01*
X007092Y007626D02*
X007152Y007626D01*
X006157Y007566D02*
X006127Y007536D01*
X006067Y007536D01*
X006037Y007566D01*
X005936Y007566D02*
X005906Y007536D01*
X005846Y007536D01*
X005816Y007566D01*
X005816Y007626D01*
X005846Y007657D01*
X005906Y007657D01*
X005936Y007626D01*
X005936Y007566D01*
X006037Y007687D02*
X006067Y007717D01*
X006127Y007717D01*
X006157Y007687D01*
X006157Y007566D01*
X005715Y007536D02*
X005715Y007657D01*
X005655Y007657D02*
X005715Y007596D01*
X005655Y007657D02*
X005625Y007657D01*
X005531Y007626D02*
X005501Y007657D01*
X005441Y007657D01*
X005411Y007626D01*
X005411Y007596D01*
X005531Y007596D01*
X005531Y007566D02*
X005531Y007626D01*
X005531Y007566D02*
X005501Y007536D01*
X005441Y007536D01*
X005089Y007596D02*
X005089Y007657D01*
X005029Y007717D01*
X004942Y007657D02*
X004882Y007717D01*
X004822Y007657D01*
X004822Y007536D01*
X004822Y007626D02*
X004942Y007626D01*
X004942Y007657D02*
X004942Y007536D01*
X005029Y007536D02*
X005089Y007596D01*
X004721Y007596D02*
X004661Y007657D01*
X004631Y007657D01*
X004721Y007657D02*
X004721Y007536D01*
X004537Y007566D02*
X004507Y007536D01*
X004417Y007536D01*
X004417Y007717D01*
X004417Y007657D02*
X004507Y007657D01*
X004537Y007626D01*
X004537Y007566D01*
X004316Y007566D02*
X004286Y007536D01*
X004196Y007536D01*
X004196Y007657D01*
X004095Y007657D02*
X004065Y007657D01*
X004065Y007536D01*
X004095Y007536D02*
X004035Y007536D01*
X003948Y007536D02*
X003948Y007657D01*
X003858Y007657D01*
X003828Y007626D01*
X003828Y007536D01*
X003727Y007566D02*
X003697Y007536D01*
X003637Y007536D01*
X003607Y007566D01*
X003607Y007626D01*
X003637Y007657D01*
X003697Y007657D01*
X003727Y007626D01*
X003727Y007566D01*
X004065Y007717D02*
X004065Y007747D01*
X004316Y007657D02*
X004316Y007566D01*
X003285Y007566D02*
X003255Y007536D01*
X003195Y007536D01*
X003165Y007566D01*
X003064Y007566D02*
X003034Y007536D01*
X002974Y007536D01*
X002944Y007566D01*
X002944Y007626D01*
X002974Y007657D01*
X003034Y007657D01*
X003064Y007626D01*
X003064Y007566D01*
X003165Y007687D02*
X003195Y007717D01*
X003255Y007717D01*
X003285Y007687D01*
X003285Y007566D01*
X002843Y007536D02*
X002843Y007657D01*
X002813Y007657D01*
X002783Y007626D01*
X002753Y007657D01*
X002723Y007626D01*
X002723Y007536D01*
X002783Y007536D02*
X002783Y007626D01*
X002622Y007657D02*
X002622Y007476D01*
X002622Y007536D02*
X002532Y007536D01*
X002502Y007566D01*
X002502Y007626D01*
X002532Y007657D01*
X002622Y007657D01*
X002401Y007566D02*
X002371Y007536D01*
X002281Y007536D01*
X002281Y007626D01*
X002311Y007657D01*
X002371Y007657D01*
X002371Y007596D02*
X002281Y007596D01*
X002180Y007657D02*
X002120Y007657D01*
X002150Y007687D02*
X002150Y007566D01*
X002120Y007536D01*
X002032Y007536D02*
X001972Y007536D01*
X002002Y007536D02*
X002002Y007657D01*
X002032Y007657D01*
X002002Y007717D02*
X002002Y007747D01*
X001885Y007717D02*
X001885Y007536D01*
X001795Y007536D01*
X001765Y007566D01*
X001765Y007626D01*
X001795Y007657D01*
X001885Y007657D01*
X001664Y007717D02*
X001634Y007717D01*
X001634Y007536D01*
X001664Y007536D02*
X001604Y007536D01*
X001517Y007566D02*
X001517Y007626D01*
X001487Y007657D01*
X001427Y007657D01*
X001397Y007626D01*
X001397Y007596D01*
X001517Y007596D01*
X001517Y007566D02*
X001487Y007536D01*
X001427Y007536D01*
X001296Y007536D02*
X001236Y007596D01*
X001236Y007657D01*
X001296Y007717D01*
X002371Y007596D02*
X002401Y007566D01*
D12*
X004612Y002580D02*
X004612Y002527D01*
X004612Y002420D02*
X004612Y002206D01*
X004665Y002206D02*
X004558Y002206D01*
X004366Y002260D02*
X004313Y002206D01*
X004366Y002260D02*
X004366Y002473D01*
X004313Y002420D02*
X004420Y002420D01*
X004612Y002420D02*
X004665Y002420D01*
X004820Y002367D02*
X004820Y002260D01*
X004873Y002206D01*
X005033Y002206D01*
X005033Y002527D01*
X005033Y002420D02*
X004873Y002420D01*
X004820Y002367D01*
X005188Y002527D02*
X005402Y002206D01*
X005557Y002527D02*
X005770Y002206D01*
X005901Y002206D02*
X005901Y002260D01*
X005954Y002260D01*
X005954Y002206D01*
X005901Y002206D01*
X005901Y002367D02*
X005954Y002367D01*
X005954Y002420D01*
X005901Y002420D01*
X005901Y002367D01*
X006109Y002367D02*
X006109Y002260D01*
X006162Y002206D01*
X006322Y002206D01*
X006322Y002100D02*
X006322Y002420D01*
X006162Y002420D01*
X006109Y002367D01*
X006461Y002420D02*
X006568Y002420D01*
X006515Y002473D02*
X006515Y002260D01*
X006461Y002206D01*
X006707Y002206D02*
X006760Y002260D01*
X006760Y002473D01*
X006707Y002420D02*
X006814Y002420D01*
X006968Y002367D02*
X006968Y002206D01*
X006968Y002367D02*
X007022Y002420D01*
X007128Y002420D01*
X007182Y002367D01*
X007182Y002527D02*
X007182Y002206D01*
X004174Y002206D02*
X004121Y002206D01*
X004121Y002260D01*
X004174Y002260D01*
X004174Y002206D01*
X003990Y002206D02*
X003883Y002206D01*
X003937Y002206D02*
X003937Y002527D01*
X003990Y002527D01*
X003744Y002420D02*
X003744Y002260D01*
X003691Y002206D01*
X003531Y002206D01*
X003531Y002153D02*
X003584Y002100D01*
X003638Y002100D01*
X003531Y002153D02*
X003531Y002420D01*
X003376Y002206D02*
X003163Y002527D01*
X003008Y002367D02*
X003008Y002260D01*
X002954Y002206D01*
X002794Y002206D01*
X002794Y002100D02*
X002794Y002420D01*
X002954Y002420D01*
X003008Y002367D01*
X002640Y002367D02*
X002533Y002420D01*
X002479Y002420D01*
X002426Y002367D01*
X002426Y002260D01*
X002479Y002206D01*
X002586Y002206D01*
X002640Y002260D01*
X002640Y002367D02*
X002640Y002527D01*
X002426Y002527D01*
X002271Y002527D02*
X002111Y002527D01*
X002058Y002473D01*
X002058Y002420D01*
X002111Y002367D01*
X002271Y002367D01*
X002271Y002527D02*
X002271Y002206D01*
X002111Y002206D01*
X002058Y002260D01*
X002058Y002313D01*
X002111Y002367D01*
X001903Y002367D02*
X001689Y002367D01*
X001689Y002527D02*
X001689Y002206D01*
X001535Y002206D02*
X001535Y002260D01*
X001321Y002473D01*
X001321Y002527D01*
X001535Y002527D01*
X001535Y002206D02*
X001321Y002206D01*
X001166Y002206D02*
X001166Y002420D01*
X001060Y002420D02*
X001166Y002313D01*
X001060Y002420D02*
X001006Y002420D01*
X001903Y002527D02*
X001903Y002206D01*
M02*
