G75*
G70*
%OFA0B0*%
%FSLAX24Y24*%
%IPPOS*%
%LPD*%
%AMOC8*
5,1,8,0,0,1.08239X$1,22.5*
%
%ADD10C,0.0640*%
%ADD11C,0.0310*%
D10*
X000632Y001226D03*
X000632Y002226D03*
X000632Y003226D03*
X000632Y004226D03*
X000632Y005226D03*
X000632Y006226D03*
X000632Y007226D03*
X000632Y008226D03*
X000632Y009226D03*
X001632Y009226D03*
X002632Y009226D03*
X003632Y009226D03*
X004632Y009226D03*
X005632Y009226D03*
X006632Y009226D03*
X007632Y009226D03*
X007632Y008226D03*
X007632Y007226D03*
X007632Y006226D03*
X007632Y005226D03*
X007632Y004226D03*
X007632Y003226D03*
X007632Y002226D03*
X007632Y001226D03*
X006632Y001226D03*
X005632Y001226D03*
X004632Y001226D03*
X003632Y001226D03*
X002632Y001226D03*
X001632Y001226D03*
D11*
X001092Y002806D03*
X001692Y003486D03*
X001932Y003226D03*
X002522Y003716D03*
X002872Y003716D03*
X002352Y004306D03*
X002352Y004686D03*
X002872Y004956D03*
X002752Y005386D03*
X002462Y005656D03*
X002732Y006146D03*
X003682Y005806D03*
X004212Y006146D03*
X004792Y006106D03*
X005072Y006766D03*
X006132Y008086D03*
X006542Y006996D03*
X007052Y005826D03*
X005012Y003406D03*
X004472Y004366D03*
X004212Y004686D03*
X002852Y002706D03*
X001412Y004126D03*
X001672Y006726D03*
X001052Y006726D03*
X002372Y008366D03*
X003452Y008216D03*
X003712Y007086D03*
X004642Y008206D03*
M02*
