G75*
G70*
%OFA0B0*%
%FSLAX24Y24*%
%IPPOS*%
%LPD*%
%AMOC8*
5,1,8,0,0,1.08239X$1,22.5*
%
%ADD10C,0.0020*%
%ADD11C,0.0030*%
D10*
X001291Y005131D02*
X001364Y005131D01*
X001401Y005168D01*
X001401Y005241D02*
X001327Y005278D01*
X001291Y005278D01*
X001254Y005241D01*
X001254Y005168D01*
X001291Y005131D01*
X001401Y005241D02*
X001401Y005351D01*
X001254Y005351D01*
X001475Y005314D02*
X001475Y005168D01*
X001512Y005131D01*
X001585Y005131D01*
X001622Y005168D01*
X001475Y005314D01*
X001512Y005351D01*
X001585Y005351D01*
X001622Y005314D01*
X001622Y005168D01*
X001696Y005168D02*
X001696Y005204D01*
X001733Y005241D01*
X001806Y005241D01*
X001843Y005278D01*
X001843Y005314D01*
X001806Y005351D01*
X001733Y005351D01*
X001696Y005314D01*
X001696Y005278D01*
X001733Y005241D01*
X001806Y005241D02*
X001843Y005204D01*
X001843Y005168D01*
X001806Y005131D01*
X001733Y005131D01*
X001696Y005168D01*
X001917Y005168D02*
X001917Y005314D01*
X002064Y005168D01*
X002027Y005131D01*
X001954Y005131D01*
X001917Y005168D01*
X001917Y005314D02*
X001954Y005351D01*
X002027Y005351D01*
X002064Y005314D01*
X002064Y005168D01*
X002138Y005131D02*
X002285Y005131D01*
X002211Y005131D02*
X002211Y005351D01*
X002285Y005278D01*
X002359Y005131D02*
X002506Y005131D01*
X002432Y005131D02*
X002432Y005351D01*
X002506Y005278D01*
X002580Y005314D02*
X002580Y005168D01*
X002617Y005131D01*
X002690Y005131D01*
X002727Y005168D01*
X002580Y005314D01*
X002617Y005351D01*
X002690Y005351D01*
X002727Y005314D01*
X002727Y005168D01*
X002801Y005131D02*
X002948Y005131D01*
X002801Y005278D01*
X002801Y005314D01*
X002838Y005351D01*
X002911Y005351D01*
X002948Y005314D01*
X003243Y005278D02*
X003353Y005278D01*
X003390Y005241D01*
X003353Y005204D01*
X003280Y005204D01*
X003243Y005168D01*
X003280Y005131D01*
X003390Y005131D01*
X003464Y005168D02*
X003464Y005278D01*
X003464Y005168D02*
X003501Y005131D01*
X003537Y005168D01*
X003574Y005131D01*
X003611Y005168D01*
X003611Y005278D01*
X003685Y005241D02*
X003685Y005204D01*
X003832Y005204D01*
X003832Y005168D02*
X003832Y005241D01*
X003795Y005278D01*
X003721Y005278D01*
X003685Y005241D01*
X003721Y005131D02*
X003795Y005131D01*
X003832Y005168D01*
X003906Y005278D02*
X003942Y005278D01*
X004016Y005204D01*
X004016Y005131D02*
X004016Y005278D01*
X004090Y005278D02*
X004200Y005278D01*
X004237Y005241D01*
X004237Y005168D01*
X004200Y005131D01*
X004090Y005131D01*
X004090Y005351D01*
X004311Y005241D02*
X004311Y005131D01*
X004311Y005241D02*
X004348Y005278D01*
X004458Y005278D01*
X004458Y005131D01*
X004532Y005131D02*
X004532Y005278D01*
X004605Y005351D01*
X004679Y005278D01*
X004679Y005131D01*
X004679Y005241D02*
X004532Y005241D01*
X004974Y005241D02*
X004974Y005131D01*
X004974Y005241D02*
X005011Y005278D01*
X005121Y005278D01*
X005121Y005131D01*
X005195Y005131D02*
X005268Y005131D01*
X005231Y005131D02*
X005231Y005278D01*
X005268Y005278D01*
X005342Y005278D02*
X005415Y005278D01*
X005379Y005314D02*
X005379Y005168D01*
X005342Y005131D01*
X005489Y005168D02*
X005526Y005204D01*
X005600Y005204D01*
X005636Y005241D01*
X005600Y005278D01*
X005489Y005278D01*
X005489Y005168D02*
X005526Y005131D01*
X005636Y005131D01*
X005710Y005131D02*
X005710Y005278D01*
X005710Y005131D02*
X005821Y005131D01*
X005857Y005168D01*
X005857Y005278D01*
X005931Y005314D02*
X005931Y005168D01*
X005968Y005131D01*
X006078Y005131D01*
X006078Y005351D01*
X005968Y005351D01*
X005931Y005314D01*
X006373Y005278D02*
X006373Y005094D01*
X006410Y005058D01*
X006447Y005058D01*
X006484Y005131D02*
X006373Y005131D01*
X006484Y005131D02*
X006520Y005168D01*
X006520Y005278D01*
X006594Y005241D02*
X006631Y005278D01*
X006741Y005278D01*
X006741Y005351D02*
X006741Y005131D01*
X006631Y005131D01*
X006594Y005168D01*
X006594Y005241D01*
X006526Y005931D02*
X006563Y005968D01*
X006563Y006114D01*
X006599Y006078D02*
X006526Y006078D01*
X006452Y006078D02*
X006452Y005931D01*
X006452Y006004D02*
X006379Y006078D01*
X006342Y006078D01*
X006231Y006078D02*
X006158Y006078D01*
X006121Y006041D01*
X006121Y005931D01*
X006231Y005931D01*
X006268Y005968D01*
X006231Y006004D01*
X006121Y006004D01*
X005826Y005968D02*
X005789Y005931D01*
X005716Y005931D01*
X005679Y005968D01*
X005605Y005968D02*
X005568Y005931D01*
X005495Y005931D01*
X005458Y005968D01*
X005458Y006041D01*
X005495Y006078D01*
X005568Y006078D01*
X005605Y006041D01*
X005605Y005968D01*
X005679Y006114D02*
X005716Y006151D01*
X005789Y006151D01*
X005826Y006114D01*
X005826Y005968D01*
X005384Y006004D02*
X005310Y006078D01*
X005274Y006078D01*
X005200Y006041D02*
X005200Y005968D01*
X005163Y005931D01*
X005090Y005931D01*
X005053Y006004D02*
X005200Y006004D01*
X005200Y006041D02*
X005163Y006078D01*
X005090Y006078D01*
X005053Y006041D01*
X005053Y006004D01*
X004758Y006004D02*
X004684Y005931D01*
X004610Y005931D02*
X004610Y006078D01*
X004537Y006151D01*
X004464Y006078D01*
X004464Y005931D01*
X004389Y005931D02*
X004389Y006078D01*
X004316Y006078D02*
X004389Y006004D01*
X004464Y006041D02*
X004610Y006041D01*
X004684Y006151D02*
X004758Y006078D01*
X004758Y006004D01*
X004316Y006078D02*
X004279Y006078D01*
X004205Y006041D02*
X004205Y005968D01*
X004169Y005931D01*
X004059Y005931D01*
X004059Y006151D01*
X004059Y006078D02*
X004169Y006078D01*
X004205Y006041D01*
X003984Y006078D02*
X003984Y005968D01*
X003948Y005931D01*
X003838Y005931D01*
X003838Y006078D01*
X003763Y006078D02*
X003727Y006078D01*
X003727Y005931D01*
X003763Y005931D02*
X003690Y005931D01*
X003616Y005931D02*
X003616Y006078D01*
X003506Y006078D01*
X003469Y006041D01*
X003469Y005931D01*
X003395Y005968D02*
X003358Y005931D01*
X003285Y005931D01*
X003248Y005968D01*
X003248Y006041D01*
X003285Y006078D01*
X003358Y006078D01*
X003395Y006041D01*
X003395Y005968D01*
X003727Y006151D02*
X003727Y006188D01*
X002953Y006114D02*
X002953Y005968D01*
X002916Y005931D01*
X002843Y005931D01*
X002806Y005968D01*
X002732Y005968D02*
X002695Y005931D01*
X002622Y005931D01*
X002585Y005968D01*
X002585Y006041D01*
X002622Y006078D01*
X002695Y006078D01*
X002732Y006041D01*
X002732Y005968D01*
X002806Y006114D02*
X002843Y006151D01*
X002916Y006151D01*
X002953Y006114D01*
X002511Y006078D02*
X002511Y005931D01*
X002438Y005931D02*
X002438Y006041D01*
X002401Y006078D01*
X002364Y006041D01*
X002364Y005931D01*
X002290Y005931D02*
X002180Y005931D01*
X002143Y005968D01*
X002143Y006041D01*
X002180Y006078D01*
X002290Y006078D01*
X002290Y005858D01*
X002438Y006041D02*
X002474Y006078D01*
X002511Y006078D01*
X002069Y005968D02*
X002032Y005931D01*
X001922Y005931D01*
X001922Y006041D01*
X001959Y006078D01*
X002032Y006078D01*
X002032Y006004D02*
X001922Y006004D01*
X001848Y006078D02*
X001775Y006078D01*
X001811Y006114D02*
X001811Y005968D01*
X001775Y005931D01*
X001701Y005931D02*
X001627Y005931D01*
X001664Y005931D02*
X001664Y006078D01*
X001701Y006078D01*
X001664Y006151D02*
X001664Y006188D01*
X001553Y006151D02*
X001553Y005931D01*
X001443Y005931D01*
X001407Y005968D01*
X001407Y006041D01*
X001443Y006078D01*
X001553Y006078D01*
X001332Y006151D02*
X001296Y006151D01*
X001296Y005931D01*
X001332Y005931D02*
X001259Y005931D01*
X001185Y005968D02*
X001185Y006041D01*
X001148Y006078D01*
X001075Y006078D01*
X001038Y006041D01*
X001038Y006004D01*
X001185Y006004D01*
X001185Y005968D02*
X001148Y005931D01*
X001075Y005931D01*
X000964Y005931D02*
X000891Y006004D01*
X000891Y006078D01*
X000964Y006151D01*
X002032Y006004D02*
X002069Y005968D01*
X005231Y005388D02*
X005231Y005351D01*
X005384Y005931D02*
X005384Y006078D01*
X006673Y006078D02*
X006820Y005931D01*
X006894Y005931D02*
X007041Y005931D01*
X007041Y006151D01*
X006894Y006151D01*
X006820Y006078D02*
X006673Y005931D01*
X006968Y006041D02*
X007041Y006041D01*
D11*
X001121Y001983D02*
X001121Y001736D01*
X001242Y001736D02*
X001489Y001736D01*
X001489Y001798D01*
X001242Y002045D01*
X001242Y002106D01*
X001489Y002106D01*
X001610Y002106D02*
X001610Y001736D01*
X001610Y001921D02*
X001857Y001921D01*
X001979Y001859D02*
X001979Y001798D01*
X002040Y001736D01*
X002226Y001736D01*
X002226Y002106D01*
X002040Y002106D01*
X001979Y002045D01*
X001979Y001983D01*
X002040Y001921D01*
X002226Y001921D01*
X002347Y001921D02*
X002347Y001798D01*
X002409Y001736D01*
X002532Y001736D01*
X002594Y001798D01*
X002715Y001736D02*
X002901Y001736D01*
X002962Y001798D01*
X002962Y001921D01*
X002901Y001983D01*
X002715Y001983D01*
X002715Y001613D01*
X002594Y001921D02*
X002470Y001983D01*
X002409Y001983D01*
X002347Y001921D01*
X002347Y002106D02*
X002594Y002106D01*
X002594Y001921D01*
X003084Y002106D02*
X003331Y001736D01*
X003452Y001736D02*
X003637Y001736D01*
X003699Y001798D01*
X003699Y001983D01*
X003883Y002106D02*
X003883Y001736D01*
X003944Y001736D02*
X003821Y001736D01*
X004067Y001736D02*
X004128Y001736D01*
X004128Y001798D01*
X004067Y001798D01*
X004067Y001736D01*
X004251Y001736D02*
X004312Y001798D01*
X004312Y002045D01*
X004251Y001983D02*
X004374Y001983D01*
X004558Y001983D02*
X004558Y001736D01*
X004619Y001736D02*
X004496Y001736D01*
X004558Y001983D02*
X004619Y001983D01*
X004741Y001921D02*
X004803Y001983D01*
X004988Y001983D01*
X004988Y002106D02*
X004988Y001736D01*
X004803Y001736D01*
X004741Y001798D01*
X004741Y001921D01*
X004558Y002106D02*
X004558Y002168D01*
X005109Y002106D02*
X005356Y001736D01*
X005724Y001736D02*
X005478Y002106D01*
X005847Y001983D02*
X005847Y001921D01*
X005909Y001921D01*
X005909Y001983D01*
X005847Y001983D01*
X005847Y001798D02*
X005847Y001736D01*
X005909Y001736D01*
X005909Y001798D01*
X005847Y001798D01*
X006030Y001798D02*
X006092Y001736D01*
X006277Y001736D01*
X006399Y001736D02*
X006461Y001798D01*
X006461Y002045D01*
X006522Y001983D02*
X006399Y001983D01*
X006277Y001983D02*
X006092Y001983D01*
X006030Y001921D01*
X006030Y001798D01*
X006277Y001613D02*
X006277Y001983D01*
X006644Y001983D02*
X006768Y001983D01*
X006706Y002045D02*
X006706Y001798D01*
X006644Y001736D01*
X006889Y001736D02*
X006889Y001921D01*
X006951Y001983D01*
X007074Y001983D01*
X007136Y001921D01*
X007136Y002106D02*
X007136Y001736D01*
X003944Y002106D02*
X003883Y002106D01*
X003452Y001983D02*
X003452Y001674D01*
X003514Y001613D01*
X003575Y001613D01*
X002040Y001921D02*
X001979Y001859D01*
X001857Y001736D02*
X001857Y002106D01*
X001121Y001859D02*
X000997Y001983D01*
X000936Y001983D01*
M02*
