G75*
G70*
%OFA0B0*%
%FSLAX24Y24*%
%IPPOS*%
%LPD*%
%AMOC8*
5,1,8,0,0,1.08239X$1,22.5*
%
%ADD10C,0.0600*%
%ADD11C,0.0396*%
%ADD12C,0.0080*%
D10*
X000551Y000521D03*
X000551Y001521D03*
X000551Y002521D03*
X000551Y003521D03*
X000551Y004521D03*
X000551Y005521D03*
X000551Y006521D03*
X000551Y007521D03*
X000551Y008521D03*
X001551Y008521D03*
X002551Y008521D03*
X003551Y008521D03*
X004551Y008521D03*
X005551Y008521D03*
X006551Y008521D03*
X007551Y008521D03*
X007551Y007521D03*
X007551Y006521D03*
X007551Y005521D03*
X007551Y004521D03*
X007551Y003521D03*
X007551Y002521D03*
X007551Y001521D03*
X007551Y000521D03*
X006551Y000521D03*
X005551Y000521D03*
X004551Y000521D03*
X003551Y000521D03*
X002551Y000521D03*
X001551Y000521D03*
D11*
X003999Y003108D03*
X004615Y002421D03*
X003251Y003521D03*
X002751Y003721D03*
X002451Y004221D03*
X003599Y004516D03*
X004251Y004021D03*
X003770Y005798D03*
X005479Y005817D03*
X005551Y007021D03*
X002851Y007621D03*
D12*
X002451Y007221D01*
X002451Y004221D01*
X002851Y003821D02*
X002751Y003721D01*
X002851Y003821D02*
X002851Y005921D01*
X003551Y006621D01*
X003551Y008521D01*
X002551Y008521D02*
X000551Y006521D01*
X003251Y005821D02*
X003251Y003521D01*
X003351Y003021D02*
X003251Y002921D01*
X001551Y001021D01*
X001551Y000521D01*
X002551Y000521D02*
X004051Y002021D01*
X004051Y003056D01*
X003999Y003108D01*
X003351Y003021D02*
X004251Y004021D01*
X004651Y004221D02*
X004615Y002421D01*
X004651Y004221D02*
X005851Y005421D01*
X005851Y006721D01*
X005551Y007021D01*
X004551Y007121D02*
X003251Y005821D01*
X003770Y005798D02*
X003784Y005817D01*
X006551Y008521D01*
X004551Y008521D02*
X004551Y007121D01*
X005479Y005817D02*
X005451Y005521D01*
X004651Y004721D01*
X003751Y004721D01*
X003599Y004516D01*
M02*
