G75*
G70*
%OFA0B0*%
%FSLAX24Y24*%
%IPPOS*%
%LPD*%
%AMOC8*
5,1,8,0,0,1.08239X$1,22.5*
%
%ADD10C,0.0020*%
%ADD11C,0.0030*%
%ADD12C,0.0010*%
%ADD13C,0.0060*%
%ADD14R,0.0160X0.0280*%
%ADD15C,0.0160*%
%ADD16C,0.0080*%
D10*
X000968Y007191D02*
X001114Y007191D01*
X001151Y007228D01*
X001151Y007301D01*
X001114Y007338D01*
X001041Y007338D01*
X001041Y007264D01*
X000968Y007191D02*
X000931Y007228D01*
X000931Y007301D01*
X000968Y007338D01*
X000931Y007412D02*
X001151Y007559D01*
X000931Y007559D01*
X000931Y007633D02*
X000931Y007743D01*
X000968Y007780D01*
X001114Y007780D01*
X001151Y007743D01*
X001151Y007633D01*
X000931Y007633D01*
X000931Y007412D02*
X001151Y007412D01*
X000863Y007901D02*
X000753Y007901D01*
X000753Y008121D01*
X000863Y008121D01*
X000900Y008084D01*
X000900Y007938D01*
X000863Y007901D01*
X000679Y007901D02*
X000679Y008121D01*
X000532Y008121D02*
X000532Y007901D01*
X000458Y007938D02*
X000458Y008011D01*
X000385Y008011D01*
X000458Y007938D02*
X000421Y007901D01*
X000348Y007901D01*
X000311Y007938D01*
X000311Y008084D01*
X000348Y008121D01*
X000421Y008121D01*
X000458Y008084D01*
X000532Y008121D02*
X000679Y007901D01*
X000921Y008231D02*
X000921Y008341D01*
X000958Y008378D01*
X000994Y008378D01*
X001031Y008341D01*
X001031Y008231D01*
X001141Y008231D02*
X000921Y008231D01*
X001031Y008341D02*
X001068Y008378D01*
X001104Y008378D01*
X001141Y008341D01*
X001141Y008231D01*
X001141Y008452D02*
X000921Y008452D01*
X001141Y008452D02*
X001141Y008599D01*
X001141Y008673D02*
X000921Y008673D01*
X001031Y008710D02*
X001141Y008820D01*
X001068Y008673D02*
X000921Y008820D01*
X005961Y008757D02*
X006181Y008757D01*
X005961Y008610D01*
X006181Y008610D01*
X006181Y008536D02*
X006108Y008462D01*
X006108Y008499D02*
X006071Y008536D01*
X005998Y008536D01*
X005961Y008499D01*
X005961Y008389D01*
X006181Y008389D01*
X006108Y008389D02*
X006108Y008499D01*
X006144Y008315D02*
X006071Y008315D01*
X006071Y008241D01*
X005998Y008168D02*
X006144Y008168D01*
X006181Y008205D01*
X006181Y008278D01*
X006144Y008315D01*
X005998Y008315D02*
X005961Y008278D01*
X005961Y008205D01*
X005998Y008168D01*
X006203Y008071D02*
X006203Y007924D01*
X006203Y008034D02*
X006350Y008034D01*
X006350Y008071D02*
X006350Y007924D01*
X006424Y007924D02*
X006424Y008144D01*
X006534Y008144D01*
X006571Y008108D01*
X006571Y008034D01*
X006534Y007998D01*
X006424Y007998D01*
X006497Y007998D02*
X006571Y007924D01*
X006645Y007924D02*
X006792Y007924D01*
X006866Y007924D02*
X006866Y008144D01*
X007013Y008144D01*
X006939Y008034D02*
X006866Y008034D01*
X006792Y008144D02*
X006645Y008144D01*
X006645Y007924D01*
X006645Y008034D02*
X006718Y008034D01*
X006350Y008071D02*
X006276Y008144D01*
X006203Y008071D01*
D11*
X005949Y008078D02*
X005949Y007981D01*
X005901Y007933D01*
X005755Y007933D01*
X005755Y007836D02*
X005755Y008126D01*
X005901Y008126D01*
X005949Y008078D01*
X005852Y007933D02*
X005949Y007836D01*
X005654Y008126D02*
X005461Y008126D01*
X005558Y008126D02*
X005558Y007836D01*
X005360Y007884D02*
X005360Y008078D01*
X005311Y008126D01*
X005166Y008126D01*
X005166Y007836D01*
X005311Y007836D01*
X005360Y007884D01*
X004844Y007816D02*
X004651Y008106D01*
X004550Y008106D02*
X004356Y008106D01*
X004453Y008106D02*
X004453Y007816D01*
X004651Y007816D02*
X004844Y008106D01*
X003774Y008096D02*
X003581Y007806D01*
X003480Y007806D02*
X003383Y007903D01*
X003431Y007903D02*
X003480Y007951D01*
X003480Y008048D01*
X003431Y008096D01*
X003286Y008096D01*
X003286Y007806D01*
X003286Y007903D02*
X003431Y007903D01*
X003581Y008096D02*
X003774Y007806D01*
X002654Y008009D02*
X002558Y007816D01*
X002461Y008009D01*
X002360Y007961D02*
X002360Y007864D01*
X002311Y007816D01*
X002215Y007816D01*
X002166Y007864D01*
X002166Y007961D02*
X002263Y008009D01*
X002311Y008009D01*
X002360Y007961D01*
X002360Y008106D02*
X002166Y008106D01*
X002166Y007961D01*
X001679Y006622D02*
X001583Y006622D01*
X001534Y006574D01*
X001534Y006380D01*
X001583Y006332D01*
X001679Y006332D01*
X001728Y006380D01*
X001728Y006574D02*
X001679Y006622D01*
X001433Y006574D02*
X001385Y006622D01*
X001288Y006622D01*
X001240Y006574D01*
X001240Y006380D01*
X001288Y006332D01*
X001385Y006332D01*
X001433Y006380D01*
X001138Y006429D02*
X001138Y006622D01*
X000945Y006622D02*
X000945Y006429D01*
X001042Y006332D01*
X001138Y006429D01*
X001073Y005756D02*
X001170Y005659D01*
X001170Y005466D01*
X001271Y005514D02*
X001464Y005708D01*
X001464Y005514D01*
X001416Y005466D01*
X001319Y005466D01*
X001271Y005514D01*
X001271Y005708D01*
X001319Y005756D01*
X001416Y005756D01*
X001464Y005708D01*
X001170Y005611D02*
X000976Y005611D01*
X000976Y005659D02*
X001073Y005756D01*
X000976Y005659D02*
X000976Y005466D01*
X001033Y004736D02*
X001130Y004639D01*
X001130Y004446D01*
X001231Y004446D02*
X001424Y004446D01*
X001328Y004446D02*
X001328Y004736D01*
X001231Y004639D01*
X001130Y004591D02*
X000936Y004591D01*
X000936Y004639D02*
X001033Y004736D01*
X000936Y004639D02*
X000936Y004446D01*
X001009Y003781D02*
X001106Y003685D01*
X001106Y003491D01*
X001207Y003491D02*
X001401Y003685D01*
X001401Y003733D01*
X001352Y003781D01*
X001256Y003781D01*
X001207Y003733D01*
X001106Y003636D02*
X000913Y003636D01*
X000913Y003685D02*
X000913Y003491D01*
X000913Y003685D02*
X001009Y003781D01*
X001207Y003491D02*
X001401Y003491D01*
X001407Y002653D02*
X001311Y002653D01*
X001262Y002605D01*
X001359Y002508D02*
X001407Y002508D01*
X001456Y002460D01*
X001456Y002412D01*
X001407Y002363D01*
X001311Y002363D01*
X001262Y002412D01*
X001407Y002508D02*
X001456Y002557D01*
X001456Y002605D01*
X001407Y002653D01*
X001161Y002557D02*
X001161Y002363D01*
X001161Y002508D02*
X000968Y002508D01*
X000968Y002557D02*
X001064Y002653D01*
X001161Y002557D01*
X000968Y002557D02*
X000968Y002363D01*
X001026Y001715D02*
X001123Y001618D01*
X001123Y001425D01*
X001123Y001570D02*
X000929Y001570D01*
X000929Y001618D02*
X001026Y001715D01*
X000929Y001618D02*
X000929Y001425D01*
X001224Y001570D02*
X001418Y001570D01*
X001369Y001425D02*
X001369Y001715D01*
X001224Y001570D01*
X001516Y001217D02*
X001613Y001120D01*
X001613Y000927D01*
X001714Y000975D02*
X001714Y001072D01*
X001859Y001072D01*
X001908Y001023D01*
X001908Y000975D01*
X001859Y000927D01*
X001763Y000927D01*
X001714Y000975D01*
X001714Y001072D02*
X001811Y001168D01*
X001908Y001217D01*
X001613Y001072D02*
X001420Y001072D01*
X001420Y001120D02*
X001420Y000927D01*
X001233Y000954D02*
X001233Y000857D01*
X001184Y000809D01*
X001088Y000809D01*
X001039Y000857D01*
X001039Y000954D02*
X001136Y001002D01*
X001184Y001002D01*
X001233Y000954D01*
X001233Y001099D02*
X001039Y001099D01*
X001039Y000954D01*
X000938Y000954D02*
X000745Y000954D01*
X000745Y001002D02*
X000841Y001099D01*
X000938Y001002D01*
X000938Y000809D01*
X000745Y000809D02*
X000745Y001002D01*
X001420Y001120D02*
X001516Y001217D01*
X002370Y001134D02*
X002370Y000940D01*
X002370Y001085D02*
X002564Y001085D01*
X002564Y001134D02*
X002564Y000940D01*
X002665Y000940D02*
X002665Y000989D01*
X002859Y001182D01*
X002859Y001231D01*
X002665Y001231D01*
X002564Y001134D02*
X002467Y001231D01*
X002370Y001134D01*
X003264Y001219D02*
X003264Y000929D01*
X003409Y000929D01*
X003458Y000978D01*
X003458Y001171D01*
X003409Y001219D01*
X003264Y001219D01*
X003559Y001171D02*
X003607Y001219D01*
X003704Y001219D01*
X003752Y001171D01*
X003752Y001123D01*
X003559Y000929D01*
X003752Y000929D01*
X004286Y000926D02*
X004431Y000926D01*
X004480Y000974D01*
X004480Y001168D01*
X004431Y001216D01*
X004286Y001216D01*
X004286Y000926D01*
X004581Y000974D02*
X004629Y000926D01*
X004726Y000926D01*
X004774Y000974D01*
X004774Y001023D01*
X004726Y001071D01*
X004678Y001071D01*
X004726Y001071D02*
X004774Y001119D01*
X004774Y001168D01*
X004726Y001216D01*
X004629Y001216D01*
X004581Y001168D01*
X005346Y001216D02*
X005346Y000926D01*
X005491Y000926D01*
X005540Y000974D01*
X005540Y001168D01*
X005491Y001216D01*
X005346Y001216D01*
X005641Y001071D02*
X005834Y001071D01*
X005786Y000926D02*
X005786Y001216D01*
X005641Y001071D01*
X006096Y001206D02*
X006096Y000916D01*
X006241Y000916D01*
X006290Y000964D01*
X006290Y001158D01*
X006241Y001206D01*
X006096Y001206D01*
X006391Y001206D02*
X006391Y001061D01*
X006488Y001109D01*
X006536Y001109D01*
X006584Y001061D01*
X006584Y000964D01*
X006536Y000916D01*
X006439Y000916D01*
X006391Y000964D01*
X006391Y001206D02*
X006584Y001206D01*
X006766Y001466D02*
X006911Y001466D01*
X006960Y001514D01*
X006960Y001708D01*
X006911Y001756D01*
X006766Y001756D01*
X006766Y001466D01*
X007061Y001466D02*
X007061Y001514D01*
X007254Y001708D01*
X007254Y001756D01*
X007061Y001756D01*
X007036Y002379D02*
X006987Y002427D01*
X006987Y002476D01*
X007036Y002524D01*
X007132Y002524D01*
X007181Y002476D01*
X007181Y002427D01*
X007132Y002379D01*
X007036Y002379D01*
X007036Y002524D02*
X006987Y002573D01*
X006987Y002621D01*
X007036Y002669D01*
X007132Y002669D01*
X007181Y002621D01*
X007181Y002573D01*
X007132Y002524D01*
X006886Y002427D02*
X006886Y002621D01*
X006838Y002669D01*
X006693Y002669D01*
X006693Y002379D01*
X006838Y002379D01*
X006886Y002427D01*
X006813Y003371D02*
X006667Y003371D01*
X006667Y003661D01*
X006813Y003661D01*
X006861Y003612D01*
X006861Y003419D01*
X006813Y003371D01*
X006962Y003419D02*
X007010Y003371D01*
X007107Y003371D01*
X007156Y003419D01*
X007156Y003612D01*
X007107Y003661D01*
X007010Y003661D01*
X006962Y003612D01*
X006962Y003564D01*
X007010Y003516D01*
X007156Y003516D01*
X007175Y004391D02*
X007079Y004391D01*
X007030Y004439D01*
X007224Y004633D01*
X007224Y004439D01*
X007175Y004391D01*
X007030Y004439D02*
X007030Y004633D01*
X007079Y004681D01*
X007175Y004681D01*
X007224Y004633D01*
X006929Y004391D02*
X006736Y004391D01*
X006832Y004391D02*
X006832Y004681D01*
X006736Y004584D01*
X006634Y004633D02*
X006586Y004681D01*
X006441Y004681D01*
X006441Y004391D01*
X006586Y004391D01*
X006634Y004439D01*
X006634Y004633D01*
X006625Y005395D02*
X006480Y005395D01*
X006480Y005685D01*
X006625Y005685D01*
X006673Y005637D01*
X006673Y005443D01*
X006625Y005395D01*
X006774Y005395D02*
X006968Y005395D01*
X006871Y005395D02*
X006871Y005685D01*
X006774Y005588D01*
X007069Y005588D02*
X007166Y005685D01*
X007166Y005395D01*
X007069Y005395D02*
X007263Y005395D01*
X007175Y006320D02*
X006982Y006320D01*
X007175Y006514D01*
X007175Y006562D01*
X007127Y006611D01*
X007030Y006611D01*
X006982Y006562D01*
X006784Y006611D02*
X006784Y006320D01*
X006687Y006320D02*
X006881Y006320D01*
X006687Y006514D02*
X006784Y006611D01*
X006586Y006562D02*
X006586Y006369D01*
X006538Y006320D01*
X006392Y006320D01*
X006392Y006611D01*
X006538Y006611D01*
X006586Y006562D01*
X006601Y007386D02*
X006456Y007386D01*
X006456Y007676D01*
X006601Y007676D01*
X006650Y007628D01*
X006650Y007434D01*
X006601Y007386D01*
X006751Y007386D02*
X006944Y007386D01*
X007045Y007434D02*
X007094Y007386D01*
X007191Y007386D01*
X007239Y007434D01*
X007239Y007483D01*
X007191Y007531D01*
X007142Y007531D01*
X007191Y007531D02*
X007239Y007579D01*
X007239Y007628D01*
X007191Y007676D01*
X007094Y007676D01*
X007045Y007628D01*
X006848Y007676D02*
X006848Y007386D01*
X006751Y007579D02*
X006848Y007676D01*
X007156Y007886D02*
X007156Y008176D01*
X007301Y008176D01*
X007350Y008128D01*
X007350Y008031D01*
X007301Y007983D01*
X007156Y007983D01*
X007253Y007983D02*
X007350Y007886D01*
X007451Y007934D02*
X007499Y007886D01*
X007596Y007886D01*
X007644Y007934D01*
X007644Y007983D01*
X007596Y008031D01*
X007499Y008031D01*
X007451Y008079D01*
X007451Y008128D01*
X007499Y008176D01*
X007596Y008176D01*
X007644Y008128D01*
X007745Y008176D02*
X007939Y008176D01*
X007842Y008176D02*
X007842Y007886D01*
X007394Y001116D02*
X007298Y001068D01*
X007201Y000971D01*
X007346Y000971D01*
X007394Y000923D01*
X007394Y000874D01*
X007346Y000826D01*
X007249Y000826D01*
X007201Y000874D01*
X007201Y000971D01*
X007100Y000874D02*
X007100Y001068D01*
X007051Y001116D01*
X006906Y001116D01*
X006906Y000826D01*
X007051Y000826D01*
X007100Y000874D01*
D12*
X007951Y000121D02*
X000151Y000121D01*
X000151Y008921D01*
X007951Y008921D01*
X007951Y000121D01*
D13*
X004871Y002141D02*
X002251Y002141D01*
X002111Y002281D01*
X002111Y004901D01*
X004871Y004901D01*
X004871Y002141D01*
X002270Y002441D02*
X002272Y002464D01*
X002278Y002487D01*
X002287Y002508D01*
X002300Y002528D01*
X002316Y002545D01*
X002334Y002559D01*
X002354Y002570D01*
X002376Y002578D01*
X002399Y002582D01*
X002423Y002582D01*
X002446Y002578D01*
X002468Y002570D01*
X002488Y002559D01*
X002506Y002545D01*
X002522Y002528D01*
X002535Y002508D01*
X002544Y002487D01*
X002550Y002464D01*
X002552Y002441D01*
X002550Y002418D01*
X002544Y002395D01*
X002535Y002374D01*
X002522Y002354D01*
X002506Y002337D01*
X002488Y002323D01*
X002468Y002312D01*
X002446Y002304D01*
X002423Y002300D01*
X002399Y002300D01*
X002376Y002304D01*
X002354Y002312D01*
X002334Y002323D01*
X002316Y002337D01*
X002300Y002354D01*
X002287Y002374D01*
X002278Y002395D01*
X002272Y002418D01*
X002270Y002441D01*
D14*
X002731Y006301D03*
X006611Y006981D03*
D15*
X004996Y006164D02*
X004972Y006164D01*
X003541Y007199D02*
X003541Y007223D01*
X002171Y006953D02*
X002171Y006929D01*
D16*
X005634Y006532D02*
X005634Y006351D01*
X005756Y006443D01*
X005634Y006351D02*
X005634Y006170D01*
X005756Y006265D02*
X005640Y006341D01*
X006160Y001837D02*
X006160Y001325D01*
X004743Y001325D02*
X004743Y001837D01*
M02*
