G75*
G70*
%OFA0B0*%
%FSLAX24Y24*%
%IPPOS*%
%LPD*%
%AMOC8*
5,1,8,0,0,1.08239X$1,22.5*
%
%ADD10R,0.0220X0.0500*%
%ADD11R,0.0500X0.0220*%
%ADD12R,0.0276X0.0354*%
%ADD13R,0.0354X0.0276*%
%ADD14R,0.0276X0.0669*%
%ADD15R,0.0315X0.0315*%
%ADD16C,0.0600*%
%ADD17R,0.0433X0.0394*%
%ADD18C,0.0080*%
%ADD19C,0.0396*%
D10*
X002389Y001831D03*
X002704Y001831D03*
X003019Y001831D03*
X003334Y001831D03*
X003649Y001831D03*
X003964Y001831D03*
X004279Y001831D03*
X004594Y001831D03*
X004594Y005211D03*
X004279Y005211D03*
X003964Y005211D03*
X003649Y005211D03*
X003334Y005211D03*
X003019Y005211D03*
X002704Y005211D03*
X002389Y005211D03*
D11*
X001801Y004623D03*
X001801Y004308D03*
X001801Y003993D03*
X001801Y003678D03*
X001801Y003363D03*
X001801Y003049D03*
X001801Y002734D03*
X001801Y002419D03*
X005181Y002419D03*
X005181Y002734D03*
X005181Y003049D03*
X005181Y003363D03*
X005181Y003678D03*
X005181Y003993D03*
X005181Y004308D03*
X005181Y004623D03*
D12*
X006355Y006981D03*
X006867Y006981D03*
X003797Y007211D03*
X003285Y007211D03*
X002987Y006301D03*
X002475Y006301D03*
X002427Y006941D03*
X001915Y006941D03*
D13*
X004984Y006420D03*
X004984Y005908D03*
D14*
X004979Y001581D03*
X005451Y001581D03*
X005924Y001581D03*
D15*
X005996Y006351D03*
X005406Y006351D03*
D16*
X000551Y000521D03*
X000551Y001521D03*
X000551Y002521D03*
X000551Y003521D03*
X000551Y004521D03*
X000551Y005521D03*
X000551Y006521D03*
X000551Y007521D03*
X000551Y008521D03*
X001551Y008521D03*
X002551Y008521D03*
X003551Y008521D03*
X004551Y008521D03*
X005551Y008521D03*
X006551Y008521D03*
X007551Y008521D03*
X007551Y007521D03*
X007551Y006521D03*
X007551Y005521D03*
X007551Y004521D03*
X007551Y003521D03*
X007551Y002521D03*
X007551Y001521D03*
X007551Y000521D03*
X006551Y000521D03*
X005551Y000521D03*
X004551Y000521D03*
X003551Y000521D03*
X002551Y000521D03*
X001551Y000521D03*
D17*
X003742Y006352D03*
X004411Y006352D03*
D18*
X004411Y005781D01*
X004251Y005621D01*
X004251Y005238D01*
X004279Y005211D01*
X004594Y005211D02*
X004804Y005421D01*
X005851Y005421D01*
X006867Y006437D01*
X006867Y006981D01*
X007011Y006981D01*
X007551Y007521D01*
X006851Y007821D02*
X006151Y007821D01*
X005751Y007421D01*
X004007Y007421D01*
X003797Y007211D01*
X003797Y007111D01*
X002987Y006301D01*
X002851Y006437D01*
X002851Y007621D01*
X003285Y007211D02*
X003351Y007277D01*
X003351Y007521D01*
X003751Y007921D01*
X005451Y007921D01*
X005551Y008021D01*
X005551Y008521D01*
X006851Y007821D02*
X007551Y008521D01*
X006355Y006981D02*
X006355Y006710D01*
X005996Y006351D01*
X005479Y005817D02*
X005364Y005908D01*
X004984Y005908D01*
X005406Y005866D02*
X005406Y006351D01*
X004984Y006420D02*
X004916Y006352D01*
X004411Y006352D01*
X004051Y006921D02*
X005451Y006921D01*
X005551Y007021D01*
X005406Y005866D02*
X005479Y005817D01*
X005654Y004623D02*
X005181Y004623D01*
X005181Y004308D02*
X006339Y004308D01*
X007551Y005521D01*
X007551Y006521D02*
X005654Y004623D01*
X005181Y003993D02*
X007024Y003993D01*
X007551Y004521D01*
X007394Y003678D02*
X005181Y003678D01*
X005181Y003363D02*
X006709Y003363D01*
X007551Y002521D01*
X007051Y001621D02*
X005939Y002734D01*
X005181Y002734D01*
X005181Y002419D02*
X005854Y002419D01*
X006551Y001721D01*
X006551Y000521D01*
X007051Y001021D02*
X007051Y001621D01*
X007551Y001521D02*
X006024Y003049D01*
X005181Y003049D01*
X004615Y002421D02*
X003851Y002421D01*
X003964Y002309D01*
X003964Y001831D01*
X003651Y001828D02*
X003651Y001521D01*
X003551Y001421D01*
X003151Y001421D01*
X003019Y001553D01*
X003019Y001831D01*
X003051Y001863D01*
X003051Y002321D01*
X003351Y002621D01*
X004051Y002621D01*
X004351Y002921D01*
X004351Y003321D01*
X003601Y004106D01*
X003599Y004516D01*
X003334Y004638D01*
X003334Y005211D01*
X003351Y005228D01*
X003351Y005521D01*
X003071Y005801D01*
X002184Y005801D01*
X001930Y006054D01*
X001930Y006057D01*
X001915Y006057D01*
X001915Y006941D01*
X001551Y007305D01*
X001551Y008521D01*
X000551Y008521D01*
X000551Y007521D01*
X000851Y005621D02*
X000751Y005521D01*
X000551Y005521D01*
X000851Y005621D02*
X002551Y005621D01*
X002651Y005521D01*
X002651Y005264D01*
X002704Y005211D01*
X003019Y005211D02*
X003051Y005179D01*
X003051Y004521D01*
X003351Y004221D01*
X003351Y004021D01*
X003951Y003421D01*
X003951Y003156D01*
X003999Y003108D01*
X003451Y002421D02*
X004615Y002421D01*
X004851Y002121D02*
X004594Y001863D01*
X004594Y001831D01*
X004351Y001758D02*
X004351Y001421D01*
X004451Y001321D01*
X004951Y001321D01*
X004979Y001349D01*
X004979Y001581D01*
X005251Y001121D02*
X004151Y001121D01*
X003851Y001421D01*
X003751Y001421D01*
X003651Y001521D01*
X003651Y001828D02*
X003649Y001831D01*
X003334Y001831D02*
X003334Y002303D01*
X003451Y002421D01*
X002751Y001784D02*
X002751Y001521D01*
X003151Y001121D01*
X003851Y001121D01*
X004053Y000950D01*
X004853Y000950D01*
X005251Y000521D01*
X005551Y000521D01*
X005251Y001121D02*
X005451Y001321D01*
X005451Y001581D01*
X005851Y001653D02*
X005851Y002021D01*
X005751Y002121D01*
X004851Y002121D01*
X004351Y001758D02*
X004279Y001831D01*
X003751Y000938D02*
X003051Y000938D01*
X002851Y001121D01*
X002551Y001121D01*
X002389Y001283D01*
X002389Y001831D01*
X002704Y001831D02*
X002751Y001784D01*
X002748Y000945D02*
X002162Y000953D01*
X001851Y001221D01*
X001851Y002369D01*
X001801Y002419D01*
X001814Y002721D02*
X002451Y002721D01*
X003251Y003521D01*
X002751Y003721D02*
X002651Y003621D01*
X002651Y003521D01*
X002179Y003049D01*
X001801Y003049D01*
X001801Y003363D02*
X002094Y003363D01*
X002351Y003621D01*
X002351Y004121D01*
X002451Y004221D01*
X001801Y004308D02*
X001539Y004308D01*
X000974Y003721D01*
X000974Y002921D01*
X000551Y002521D01*
X001151Y002121D02*
X000551Y001521D01*
X001151Y002121D02*
X001151Y003621D01*
X001524Y003993D01*
X001801Y003993D01*
X001801Y003678D02*
X001509Y003678D01*
X001351Y003521D01*
X001351Y001321D01*
X000551Y000521D01*
X001814Y002721D02*
X001801Y002734D01*
X000651Y003621D02*
X000551Y003521D01*
X000651Y003621D02*
X000651Y003821D01*
X001454Y004623D01*
X001801Y004623D01*
X001241Y005211D02*
X000551Y004521D01*
X001241Y005211D02*
X002389Y005211D01*
X002567Y005972D02*
X003362Y005972D01*
X003742Y006352D01*
X003742Y006712D01*
X004051Y006921D01*
X003770Y005798D02*
X003649Y005576D01*
X003649Y005211D01*
X003951Y005199D02*
X003964Y005211D01*
X003951Y005199D02*
X003951Y004321D01*
X004251Y004021D01*
X003334Y005211D02*
X003251Y005293D01*
X002567Y005972D02*
X002475Y006064D01*
X002475Y006301D01*
X002475Y006893D01*
X002427Y006941D01*
X002427Y008397D01*
X002551Y008521D01*
X007394Y003678D02*
X007551Y003521D01*
X005851Y001653D02*
X005924Y001581D01*
X007051Y001021D02*
X007551Y000521D01*
X004551Y000521D02*
X004151Y000521D01*
X003751Y000938D01*
X003551Y000521D02*
X003181Y000582D01*
X002748Y000945D01*
D19*
X004615Y002421D03*
X003999Y003108D03*
X003251Y003521D03*
X002751Y003721D03*
X002451Y004221D03*
X003599Y004516D03*
X004251Y004021D03*
X003770Y005798D03*
X005479Y005817D03*
X005551Y007021D03*
X002851Y007621D03*
M02*
