%
M48
M72
T01C0.0236
T02C0.0400
%
T01
X3251Y3521
X2751Y3721
X2451Y4221
X3599Y4516
X4251Y4021
X3999Y3108
X4615Y2421
X3770Y5798
X5479Y5817
X5551Y7021
X2851Y7621
T02
X551Y521
X551Y1521
X551Y2521
X551Y3521
X551Y4521
X551Y5521
X551Y6521
X551Y7521
X551Y8521
X1551Y8521
X2551Y8521
X3551Y8521
X4551Y8521
X5551Y8521
X6551Y8521
X7551Y8521
X7551Y7521
X7551Y6521
X7551Y5521
X7551Y4521
X7551Y3521
X7551Y2521
X7551Y1521
X7551Y521
X6551Y521
X5551Y521
X4551Y521
X3551Y521
X2551Y521
X1551Y521
M30
