G75*
G70*
%OFA0B0*%
%FSLAX24Y24*%
%IPPOS*%
%LPD*%
%AMOC8*
5,1,8,0,0,1.08239X$1,22.5*
%
%ADD10R,0.0220X0.0500*%
%ADD11R,0.0500X0.0220*%
%ADD12R,0.0472X0.0315*%
%ADD13R,0.0315X0.0472*%
%ADD14R,0.0276X0.0669*%
%ADD15C,0.0600*%
%ADD16R,0.0591X0.0394*%
%ADD17C,0.0080*%
%ADD18C,0.0270*%
%ADD19C,0.0100*%
D10*
X002469Y003236D03*
X002784Y003236D03*
X003099Y003236D03*
X003414Y003236D03*
X003729Y003236D03*
X004044Y003236D03*
X004359Y003236D03*
X004674Y003236D03*
X004674Y006616D03*
X004359Y006616D03*
X004044Y006616D03*
X003729Y006616D03*
X003414Y006616D03*
X003099Y006616D03*
X002784Y006616D03*
X002469Y006616D03*
D11*
X001882Y006029D03*
X001882Y005714D03*
X001882Y005399D03*
X001882Y005084D03*
X001882Y004769D03*
X001882Y004454D03*
X001882Y004139D03*
X001882Y003824D03*
X005262Y003824D03*
X005262Y004139D03*
X005262Y004454D03*
X005262Y004769D03*
X005262Y005084D03*
X005262Y005399D03*
X005262Y005714D03*
X005262Y006029D03*
D12*
X002732Y007272D03*
X002732Y007981D03*
X002132Y007981D03*
X002132Y007272D03*
D13*
X003277Y007526D03*
X003986Y007526D03*
X004377Y007526D03*
X005086Y007526D03*
X005777Y007726D03*
X006486Y007726D03*
X003986Y002526D03*
X003277Y002526D03*
D14*
X004559Y002386D03*
X005032Y002386D03*
X005504Y002386D03*
D15*
X000632Y001226D03*
X000632Y002226D03*
X000632Y003226D03*
X000632Y004226D03*
X000632Y005226D03*
X000632Y006226D03*
X000632Y007226D03*
X000632Y008226D03*
X000632Y009226D03*
X001632Y009226D03*
X002632Y009226D03*
X003632Y009226D03*
X004632Y009226D03*
X005632Y009226D03*
X006632Y009226D03*
X007632Y009226D03*
X007632Y008226D03*
X007632Y007226D03*
X007632Y006226D03*
X007632Y005226D03*
X007632Y004226D03*
X007632Y003226D03*
X007632Y002226D03*
X007632Y001226D03*
X006632Y001226D03*
X005632Y001226D03*
X004632Y001226D03*
X003632Y001226D03*
X002632Y001226D03*
X001632Y001226D03*
D16*
X006032Y005936D03*
X006032Y007117D03*
D17*
X006032Y007127D01*
X006042Y007206D01*
X006242Y007406D01*
X006242Y007286D01*
X006242Y007406D02*
X006486Y007651D01*
X006486Y007726D01*
X006772Y008006D02*
X006432Y008346D01*
X005652Y008346D01*
X005212Y007906D01*
X003372Y007906D01*
X003282Y007816D01*
X003282Y007531D01*
X003277Y007526D01*
X003282Y007522D01*
X003282Y007236D01*
X003412Y007106D01*
X003412Y006626D01*
X003414Y006616D01*
X003392Y006586D01*
X003382Y003666D01*
X003632Y003666D01*
X003722Y003576D01*
X003722Y003244D01*
X003729Y003236D01*
X003712Y003246D01*
X003652Y003306D01*
X003492Y003166D02*
X003492Y002926D01*
X003552Y002866D01*
X004032Y002866D01*
X004032Y002566D01*
X003992Y002526D01*
X003986Y002526D01*
X004032Y002866D02*
X004032Y003226D01*
X004044Y003236D01*
X004032Y003266D01*
X003972Y003326D01*
X003972Y004096D01*
X003682Y004466D01*
X003682Y005806D01*
X003952Y006266D02*
X003952Y004506D01*
X005012Y003446D01*
X005012Y003406D01*
X005102Y003046D02*
X005492Y002656D01*
X005492Y002386D01*
X005504Y002386D01*
X005032Y002386D02*
X005032Y001996D01*
X004922Y001886D01*
X003917Y001886D01*
X003277Y002526D01*
X003272Y002526D01*
X003112Y002686D01*
X003112Y003226D01*
X003099Y003236D01*
X003122Y003259D01*
X003122Y003586D01*
X003202Y003666D01*
X003382Y003666D01*
X003132Y003976D02*
X003132Y006586D01*
X003112Y006606D01*
X003099Y006616D01*
X002784Y006616D02*
X002772Y006606D01*
X002732Y006566D01*
X002732Y006146D01*
X002452Y006016D02*
X002452Y006606D01*
X002469Y006616D01*
X002452Y006606D02*
X002452Y006626D01*
X002452Y006016D02*
X002752Y005766D01*
X002752Y005386D01*
X002502Y005226D02*
X002252Y005226D01*
X002082Y005396D01*
X001884Y005396D01*
X001882Y005399D01*
X001892Y005386D01*
X002042Y005386D01*
X001882Y005084D02*
X001892Y005066D01*
X002402Y005066D01*
X002622Y004856D01*
X002622Y003816D01*
X002522Y003716D01*
X002872Y003716D02*
X003132Y003976D01*
X003112Y003266D02*
X003099Y003236D01*
X002852Y003166D02*
X002852Y002706D01*
X002472Y002686D02*
X002472Y003234D01*
X002232Y003296D02*
X002232Y002566D01*
X003572Y001226D01*
X003632Y001226D01*
X003512Y001666D02*
X002472Y002686D01*
X002852Y003166D02*
X002792Y003226D01*
X002784Y003236D01*
X002232Y003296D02*
X001892Y003636D01*
X001892Y003806D01*
X001882Y003824D01*
X001882Y004139D02*
X001889Y004146D01*
X002222Y004146D01*
X002352Y004276D01*
X002352Y004306D01*
X002132Y004466D02*
X002192Y004526D01*
X002052Y004526D01*
X002132Y004466D02*
X001892Y004466D01*
X001882Y004454D01*
X001882Y004769D02*
X001872Y004786D01*
X001512Y004786D01*
X001412Y004886D01*
X001412Y006846D01*
X001812Y007246D01*
X002112Y007246D01*
X002132Y007272D01*
X002132Y007266D01*
X002732Y007266D01*
X002732Y007272D01*
X003277Y007526D02*
X003272Y007566D01*
X001292Y007566D01*
X000632Y008226D01*
X000632Y009226D01*
X001632Y009226D01*
X002372Y008366D02*
X002132Y008126D01*
X002132Y007981D01*
X002632Y008086D02*
X002632Y009226D01*
X003632Y008396D02*
X003452Y008216D01*
X003632Y008396D02*
X003632Y009226D01*
X002632Y008086D02*
X002732Y007986D01*
X002732Y007981D01*
X003277Y007526D02*
X003312Y007546D01*
X003292Y007526D02*
X003277Y007526D01*
X003712Y007086D02*
X003712Y006626D01*
X003729Y006616D01*
X003972Y006546D02*
X003972Y006286D01*
X003952Y006266D01*
X003972Y006546D02*
X004032Y006606D01*
X004044Y006616D01*
X004352Y006626D02*
X004359Y006616D01*
X004352Y006626D02*
X004352Y007506D01*
X004377Y007526D01*
X003986Y007526D01*
X004642Y008206D02*
X004632Y008216D01*
X004632Y009226D01*
X005812Y008046D02*
X005812Y007746D01*
X005777Y007726D01*
X005777Y007682D01*
X005372Y007276D01*
X005372Y006686D01*
X005192Y006506D01*
X004692Y006506D01*
X004692Y006606D01*
X004674Y006616D01*
X005072Y006766D02*
X005072Y007526D01*
X005086Y007526D01*
X005812Y008046D02*
X005852Y008086D01*
X006132Y008086D01*
X006772Y008006D02*
X006772Y006586D01*
X006132Y005946D01*
X006032Y005946D01*
X006032Y005936D01*
X006112Y006376D02*
X005392Y006376D01*
X005262Y006246D01*
X005262Y006029D01*
X005272Y006046D01*
X005262Y005714D02*
X005272Y005706D01*
X005382Y005686D01*
X005612Y005686D01*
X005732Y005566D01*
X007372Y005566D01*
X007632Y005826D01*
X007632Y006226D01*
X007052Y005826D02*
X007052Y008646D01*
X007632Y009226D01*
X006542Y006996D02*
X006542Y006806D01*
X006112Y006376D01*
X005262Y005399D02*
X005272Y005326D01*
X007632Y005326D01*
X007632Y005226D01*
X007102Y004326D02*
X007102Y003756D01*
X007632Y003226D01*
X006932Y002926D02*
X006932Y004076D01*
X006562Y004446D01*
X005272Y004446D01*
X005262Y004454D01*
X005272Y004766D02*
X005262Y004769D01*
X005272Y004766D02*
X006662Y004766D01*
X007102Y004326D01*
X006752Y003886D02*
X006512Y004126D01*
X005272Y004126D01*
X005262Y004139D01*
X005262Y003824D02*
X005492Y003736D01*
X006572Y002656D01*
X006572Y001286D01*
X006632Y001226D01*
X006752Y002106D02*
X007632Y001226D01*
X007632Y002226D02*
X006932Y002926D01*
X006752Y002106D02*
X006752Y003886D01*
X007632Y004226D02*
X006792Y005066D01*
X005272Y005066D01*
X005262Y005084D01*
X004792Y004686D02*
X004472Y004366D01*
X004212Y004686D02*
X004212Y006146D01*
X004792Y006106D02*
X004792Y004686D01*
X004674Y003236D02*
X004692Y003226D01*
X004692Y003046D01*
X005102Y003046D01*
X004559Y002386D02*
X004552Y002386D01*
X004432Y002506D01*
X004432Y003166D01*
X004372Y003226D01*
X004359Y003236D01*
X003492Y003166D02*
X003432Y003226D01*
X003414Y003236D01*
X002192Y004526D02*
X002352Y004686D01*
X002502Y005226D02*
X002872Y004956D01*
X002462Y005656D02*
X002392Y005726D01*
X001892Y005726D01*
X001882Y005714D01*
X001882Y006029D02*
X001872Y006046D01*
X001672Y006096D01*
X001672Y006726D01*
X001052Y006726D02*
X001052Y004666D01*
X000632Y004246D01*
X000632Y004226D01*
X001152Y004526D02*
X001412Y004786D01*
X001412Y004886D01*
X001412Y004786D02*
X001512Y004786D01*
X001152Y004526D02*
X001152Y002866D01*
X001092Y002806D01*
X001352Y002686D02*
X000892Y002226D01*
X000632Y002226D01*
X001352Y002686D02*
X001352Y004066D01*
X001412Y004126D01*
X001882Y004139D02*
X001892Y004146D01*
X001692Y003486D02*
X001512Y003306D01*
X001512Y002106D01*
X000632Y001226D01*
X002072Y001786D02*
X002632Y001226D01*
X002072Y001786D02*
X002072Y003086D01*
X001932Y003226D01*
X003512Y001666D02*
X003852Y001666D01*
X004282Y001236D01*
X004632Y001226D01*
D18*
X005012Y003406D03*
X004472Y004366D03*
X004212Y004686D03*
X003682Y005806D03*
X004212Y006146D03*
X004792Y006106D03*
X005072Y006766D03*
X006132Y008086D03*
X006542Y006996D03*
X007052Y005826D03*
X004642Y008206D03*
X003712Y007086D03*
X003452Y008216D03*
X002372Y008366D03*
X001672Y006726D03*
X001052Y006726D03*
X002462Y005656D03*
X002752Y005386D03*
X002872Y004956D03*
X002352Y004686D03*
X002352Y004306D03*
X002522Y003716D03*
X002872Y003716D03*
X002852Y002706D03*
X001932Y003226D03*
X001692Y003486D03*
X001412Y004126D03*
X001092Y002806D03*
X002732Y006146D03*
D19*
X002469Y003236D02*
X002472Y003234D01*
M02*
