G75*
G70*
%OFA0B0*%
%FSLAX24Y24*%
%IPPOS*%
%LPD*%
%AMOC8*
5,1,8,0,0,1.08239X$1,22.5*
%
%ADD10R,0.0200X0.0480*%
%ADD11R,0.0480X0.0200*%
%ADD12R,0.0452X0.0295*%
%ADD13R,0.0295X0.0452*%
%ADD14R,0.0256X0.0649*%
%ADD15R,0.0571X0.0374*%
D10*
X002469Y003236D03*
X002784Y003236D03*
X003099Y003236D03*
X003414Y003236D03*
X003729Y003236D03*
X004044Y003236D03*
X004359Y003236D03*
X004674Y003236D03*
X004674Y006616D03*
X004359Y006616D03*
X004044Y006616D03*
X003729Y006616D03*
X003414Y006616D03*
X003099Y006616D03*
X002784Y006616D03*
X002469Y006616D03*
D11*
X001882Y006029D03*
X001882Y005714D03*
X001882Y005399D03*
X001882Y005084D03*
X001882Y004769D03*
X001882Y004454D03*
X001882Y004139D03*
X001882Y003824D03*
X005262Y003824D03*
X005262Y004139D03*
X005262Y004454D03*
X005262Y004769D03*
X005262Y005084D03*
X005262Y005399D03*
X005262Y005714D03*
X005262Y006029D03*
D12*
X002732Y007272D03*
X002732Y007981D03*
X002132Y007981D03*
X002132Y007272D03*
D13*
X003277Y007526D03*
X003986Y007526D03*
X004377Y007526D03*
X005086Y007526D03*
X005777Y007726D03*
X006486Y007726D03*
X003986Y002526D03*
X003277Y002526D03*
D14*
X004559Y002386D03*
X005032Y002386D03*
X005504Y002386D03*
D15*
X006032Y005936D03*
X006032Y007117D03*
M02*
